<svg width="1080" height="1080" viewBox="0 0 1080 1080" fill="none" xmlns="http://www.w3.org/2000/svg">
<rect width="1080" height="1080" fill="black"/>
<ellipse cx="223.5" cy="481" rx="139.5" ry="142" fill="white"/>
<path d="M249.099 385.364V589H206.045V426.23H204.852L158.219 455.463V417.281L208.631 385.364H249.099Z" fill="black"/>
<path d="M468.824 465.33V623H393.185V350.273H465.273V398.391H468.469C474.506 382.529 484.626 369.982 498.831 360.749C513.036 351.397 530.259 346.722 550.5 346.722C569.439 346.722 585.952 350.865 600.038 359.151C614.125 367.437 625.074 379.274 632.886 394.662C640.699 409.932 644.605 428.161 644.605 449.349V623H568.966V462.844C569.084 446.153 564.823 433.133 556.182 423.781C547.541 414.312 535.644 409.577 520.493 409.577C510.313 409.577 501.317 411.767 493.504 416.146C485.81 420.526 479.773 426.918 475.393 435.322C471.132 443.608 468.942 453.611 468.824 465.33Z" fill="white"/>
<path d="M815.474 628.327C787.42 628.327 763.273 622.645 743.031 611.281C722.908 599.799 707.402 583.582 696.511 562.631C685.621 541.561 680.176 516.643 680.176 487.879C680.176 459.825 685.621 435.204 696.511 414.016C707.402 392.827 722.731 376.314 742.499 364.477C762.385 352.64 785.704 346.722 812.456 346.722C830.448 346.722 847.198 349.622 862.705 355.422C878.33 361.104 891.942 369.686 903.543 381.168C915.261 392.65 924.376 407.091 930.886 424.491C937.397 441.774 940.652 462.015 940.652 485.216V505.99H710.361V459.115H869.452C869.452 448.225 867.084 438.578 862.349 430.173C857.615 421.769 851.045 415.199 842.641 410.464C834.355 405.611 824.707 403.185 813.699 403.185C802.217 403.185 792.037 405.848 783.159 411.175C774.4 416.383 767.534 423.426 762.562 432.304C757.591 441.063 755.046 450.829 754.928 461.601V506.168C754.928 519.662 757.413 531.321 762.385 541.146C767.475 550.971 774.636 558.547 783.869 563.874C793.102 569.2 804.052 571.864 816.717 571.864C825.122 571.864 832.816 570.68 839.8 568.312C846.784 565.945 852.761 562.394 857.733 557.659C862.705 552.924 866.492 547.124 869.097 540.259L939.054 544.875C935.503 561.684 928.223 576.362 917.214 588.909C906.324 601.338 892.238 611.045 874.956 618.028C857.792 624.894 837.965 628.327 815.474 628.327Z" fill="white"/>
<rect x="755" y="459" width="8" height="47" fill="black"/>
<circle cx="249" cy="586" r="3" fill="black"/>
<circle cx="467.5" cy="395.5" r="1.5" fill="white"/>
</svg>
