<svg width="392" height="599" viewBox="0 0 392 599" fill="none" xmlns="http://www.w3.org/2000/svg">
<g clip-path="url(#clip0_382_43)">
<path d="M0 39.3979C0 28.9144 0 23.6726 1.60211 19.4308C4.83434 10.873 12.6252 4.16341 22.5621 1.37976C27.4874 0 33.5738 0 45.7469 0H158.537C167.919 0 172.609 0 177.165 0.65378C181.209 1.23419 185.167 2.19662 188.966 3.52364C193.245 5.01845 197.243 7.13164 205.239 11.358L219.113 18.6907C227.11 22.917 231.107 25.0302 235.388 26.525C239.187 27.8521 243.143 28.8145 247.187 29.3948C251.743 30.0487 256.435 30.0487 265.817 30.0487H339.733C358.028 30.0487 367.176 30.0487 374.164 33.115C380.311 35.8122 385.307 40.116 388.439 45.4096C392 51.4276 392 59.3056 392 75.0616V553.987C392 569.743 392 577.621 388.439 583.639C385.307 588.933 380.311 593.236 374.164 595.934C367.176 599 358.028 599 339.733 599H52.2667C33.9716 599 24.8241 599 17.8363 595.934C11.6897 593.236 6.69231 588.933 3.56045 583.639C0 577.621 0 569.743 0 553.987V39.3979Z" fill="#2453FF"/>
<path d="M0 39.3979C0 28.9144 0 23.6726 1.60211 19.4308C4.83434 10.873 12.6252 4.16341 22.5621 1.37976C27.4874 0 33.5738 0 45.7469 0H158.537C167.919 0 172.609 0 177.165 0.65378C181.209 1.23419 185.167 2.19662 188.966 3.52364C193.245 5.01845 197.243 7.13164 205.239 11.358L219.113 18.6907C227.11 22.917 231.107 25.0302 235.388 26.525C239.187 27.8521 243.143 28.8145 247.187 29.3948C251.743 30.0487 256.435 30.0487 265.817 30.0487H339.733C358.028 30.0487 367.176 30.0487 374.164 33.115C380.311 35.8122 385.307 40.116 388.439 45.4096C392 51.4276 392 59.3056 392 75.0616V553.987C392 569.743 392 577.621 388.439 583.639C385.307 588.933 380.311 593.236 374.164 595.934C367.176 599 358.028 599 339.733 599H52.2667C33.9716 599 24.8241 599 17.8363 595.934C11.6897 593.236 6.69231 588.933 3.56045 583.639C0 577.621 0 569.743 0 553.987V39.3979Z" fill="url(#paint0_linear_382_43)" fill-opacity="0.2"/>
</g>
<defs>
<linearGradient id="paint0_linear_382_43" x1="687.757" y1="-59.3719" x2="758.324" y2="229.908" gradientUnits="userSpaceOnUse">
<stop stop-color="#9EDFFF"/>
<stop offset="1" stop-color="#558EFF" stop-opacity="0"/>
</linearGradient>
<clipPath id="clip0_382_43">
<rect width="392" height="599" fill="white"/>
</clipPath>
</defs>
</svg>
