<svg width="1302" height="375" viewBox="0 0 1302 375" fill="none" xmlns="http://www.w3.org/2000/svg">
<g clip-path="url(#clip0_268_61)">
<path d="M0 61.9355C0 40.256 0 29.4163 4.22036 21.1358C7.93269 13.8521 13.8563 7.93033 21.1421 4.2191C29.4251 0 40.268 0 61.9539 0H426.796H500.539C518.851 0 528.006 0 536.944 1.34267C544.882 2.53493 552.682 4.5138 560.228 7.25006C568.725 10.3315 576.773 14.6963 592.866 23.4255L661.705 60.7627C677.8 69.4921 685.847 73.8567 694.345 76.9381C701.891 79.6744 709.689 81.6534 717.627 82.8456C726.567 84.1882 735.722 84.1882 754.032 84.1882H1240.05C1261.73 84.1882 1272.57 84.1882 1280.86 88.4073C1288.15 92.1186 1294.06 98.0404 1297.78 105.324C1302 113.605 1302 124.444 1302 146.124V313.065C1302 334.744 1302 345.584 1297.78 353.865C1294.06 361.148 1288.15 367.069 1280.86 370.781C1272.57 375 1261.73 375 1240.05 375H61.9538C40.268 375 29.4251 375 21.1421 370.781C13.8563 367.069 7.93269 361.148 4.22036 353.865C0 345.584 0 334.744 0 313.065V61.9355Z" fill="#2453FF"/>
<path d="M0 61.9355C0 40.256 0 29.4163 4.22036 21.1358C7.93269 13.8521 13.8563 7.93033 21.1421 4.2191C29.4251 0 40.268 0 61.9539 0H426.796H500.539C518.851 0 528.006 0 536.944 1.34267C544.882 2.53493 552.682 4.5138 560.228 7.25006C568.725 10.3315 576.773 14.6963 592.866 23.4255L661.705 60.7627C677.8 69.4921 685.847 73.8567 694.345 76.9381C701.891 79.6744 709.689 81.6534 717.627 82.8456C726.567 84.1882 735.722 84.1882 754.032 84.1882H1240.05C1261.73 84.1882 1272.57 84.1882 1280.86 88.4073C1288.15 92.1186 1294.06 98.0404 1297.78 105.324C1302 113.605 1302 124.444 1302 146.124V313.065C1302 334.744 1302 345.584 1297.78 353.865C1294.06 361.148 1288.15 367.069 1280.86 370.781C1272.57 375 1261.73 375 1240.05 375H61.9538C40.268 375 29.4251 375 21.1421 370.781C13.8563 367.069 7.93269 361.148 4.22036 353.865C0 345.584 0 334.744 0 313.065V61.9355Z" fill="url(#paint0_linear_268_61)" fill-opacity="0.2"/>
<path d="M38.6629 93L33.6813 78.0976H35.874L40.4512 91.8504H39.3442L44.0917 78.0976H46.0503L50.6913 91.8504H49.6268L54.2679 78.0976H56.2903L51.3087 93H49.0733L44.7303 80.2478H45.3051L40.9409 93H38.6629ZM58.5966 93V81.7167H60.6403V93H58.5966ZM59.6184 79.5453C59.221 79.5453 58.8875 79.4175 58.6178 79.162C58.3624 78.9066 58.2346 78.5943 58.2346 78.2253C58.2346 77.8421 58.3624 77.5228 58.6178 77.2673C58.8875 77.0118 59.221 76.8841 59.6184 76.8841C60.0158 76.8841 60.3423 77.0118 60.5977 77.2673C60.8674 77.5086 61.0022 77.8137 61.0022 78.1827C61.0022 78.566 60.8745 78.8924 60.619 79.162C60.3636 79.4175 60.03 79.5453 59.6184 79.5453ZM68.4172 93.1277C67.2818 93.1277 66.4018 92.8226 65.7773 92.2123C65.1528 91.602 64.8406 90.7292 64.8406 89.5937V79.2472H66.8844V89.5086C66.8844 90.1189 67.0334 90.5872 67.3314 90.9137C67.6437 91.2401 68.0836 91.4033 68.6514 91.4033C69.29 91.4033 69.8223 91.2259 70.248 90.8711L70.8867 92.34C70.5745 92.6097 70.1984 92.8084 69.7584 92.9361C69.3326 93.0639 68.8855 93.1277 68.4172 93.1277ZM62.9246 83.3986V81.7167H70.1203V83.3986H62.9246ZM79.3824 81.6103C80.305 81.6103 81.1139 81.7877 81.8094 82.1425C82.519 82.4973 83.0725 83.0367 83.4699 83.7605C83.8673 84.4843 84.066 85.3998 84.066 86.5068V93H82.0223V86.741C82.0223 85.6481 81.7526 84.825 81.2133 84.2714C80.6882 83.7179 79.943 83.4412 78.9779 83.4412C78.2541 83.4412 77.6225 83.5831 77.0832 83.867C76.5439 84.1508 76.1252 84.5695 75.8271 85.123C75.5433 85.6765 75.4013 86.3649 75.4013 87.1881V93H73.3576V77.2034H75.4013V84.7611L74.9969 83.9521C75.3659 83.2141 75.9336 82.6393 76.7 82.2277C77.4664 81.8161 78.3605 81.6103 79.3824 81.6103ZM98.3131 93.1277C97.348 93.1277 96.4965 92.9503 95.7584 92.5955C95.0346 92.2407 94.4669 91.7014 94.0553 90.9775C93.6579 90.2395 93.4592 89.317 93.4592 88.2099V81.7167H95.503V87.9758C95.503 89.0828 95.7655 89.9131 96.2907 90.4666C96.83 91.0201 97.5822 91.2969 98.5473 91.2969C99.257 91.2969 99.8743 91.1549 100.399 90.8711C100.925 90.573 101.329 90.1473 101.613 89.5937C101.897 89.026 102.039 88.3448 102.039 87.55V81.7167H104.083V93H102.145V89.9557L102.465 90.7646C102.096 91.5169 101.542 92.0988 100.804 92.5103C100.066 92.9219 99.2357 93.1277 98.3131 93.1277ZM111.209 93.1277C110.272 93.1277 109.378 93 108.527 92.7445C107.689 92.4891 107.029 92.1768 106.547 91.8078L107.398 90.1898C107.881 90.5163 108.477 90.793 109.187 91.0201C109.896 91.2472 110.62 91.3607 111.358 91.3607C112.309 91.3607 112.99 91.2259 113.402 90.9562C113.828 90.6866 114.041 90.3105 114.041 89.8279C114.041 89.4731 113.913 89.1963 113.657 88.9976C113.402 88.7989 113.061 88.6499 112.636 88.5506C112.224 88.4512 111.763 88.3661 111.252 88.2951C110.741 88.2099 110.23 88.1106 109.719 87.997C109.208 87.8693 108.74 87.699 108.314 87.4861C107.888 87.259 107.547 86.9539 107.292 86.5707C107.037 86.1733 106.909 85.6481 106.909 84.9953C106.909 84.314 107.1 83.7179 107.484 83.207C107.867 82.696 108.406 82.3057 109.102 82.0361C109.811 81.7522 110.649 81.6103 111.614 81.6103C112.352 81.6103 113.097 81.7026 113.849 81.8871C114.615 82.0574 115.24 82.3057 115.723 82.6322L114.85 84.2502C114.339 83.9095 113.806 83.6753 113.253 83.5476C112.699 83.4199 112.146 83.356 111.592 83.356C110.698 83.356 110.031 83.505 109.591 83.8031C109.151 84.0869 108.931 84.456 108.931 84.9101C108.931 85.2933 109.059 85.5914 109.314 85.8043C109.584 86.003 109.925 86.1591 110.336 86.2726C110.762 86.3862 111.231 86.4855 111.741 86.5707C112.252 86.6416 112.763 86.741 113.274 86.8687C113.785 86.9823 114.246 87.1455 114.658 87.3584C115.084 87.5713 115.424 87.8693 115.68 88.2525C115.95 88.6357 116.084 89.1467 116.084 89.7853C116.084 90.4666 115.886 91.0556 115.488 91.5523C115.091 92.0491 114.53 92.4394 113.806 92.7232C113.083 92.9929 112.217 93.1277 111.209 93.1277ZM117.83 96.1508L118.894 91.8504L119.171 93.0852C118.759 93.0852 118.412 92.9574 118.128 92.702C117.858 92.4465 117.723 92.0988 117.723 91.6588C117.723 91.233 117.858 90.8853 118.128 90.6156C118.412 90.346 118.752 90.2111 119.15 90.2111C119.561 90.2111 119.895 90.353 120.15 90.6369C120.406 90.9066 120.533 91.2472 120.533 91.6588C120.533 91.8007 120.519 91.9426 120.491 92.0846C120.477 92.2123 120.441 92.3684 120.384 92.5529C120.342 92.7232 120.271 92.9361 120.171 93.1916L119.171 96.1508H117.83ZM129.669 97.2578C129.13 97.2578 128.604 97.1656 128.094 96.9811C127.583 96.8108 127.143 96.5553 126.774 96.2147L127.646 94.6818C127.93 94.9515 128.243 95.1573 128.583 95.2992C128.924 95.4412 129.286 95.5121 129.669 95.5121C130.166 95.5121 130.577 95.3844 130.904 95.1289C131.23 94.8734 131.535 94.4193 131.819 93.7664L132.522 92.2123L132.735 91.9568L137.163 81.7167H139.164L133.693 94.1283C133.366 94.9231 132.997 95.5476 132.586 96.0018C132.188 96.4559 131.748 96.7753 131.266 96.9598C130.783 97.1585 130.251 97.2578 129.669 97.2578ZM132.351 93.3619L127.199 81.7167H129.328L133.714 91.7652L132.351 93.3619ZM145.592 93.1277C144.457 93.1277 143.449 92.8794 142.569 92.3826C141.689 91.8859 140.994 91.2046 140.483 90.3389C139.972 89.4589 139.716 88.4654 139.716 87.3584C139.716 86.2371 139.972 85.2436 140.483 84.3779C140.994 83.5121 141.689 82.838 142.569 82.3554C143.449 81.8587 144.457 81.6103 145.592 81.6103C146.713 81.6103 147.714 81.8587 148.594 82.3554C149.488 82.838 150.183 83.5121 150.68 84.3779C151.191 85.2295 151.447 86.223 151.447 87.3584C151.447 88.4796 151.191 89.4731 150.68 90.3389C150.183 91.2046 149.488 91.8859 148.594 92.3826C147.714 92.8794 146.713 93.1277 145.592 93.1277ZM145.592 91.3394C146.316 91.3394 146.962 91.1762 147.529 90.8498C148.111 90.5234 148.565 90.0621 148.892 89.466C149.218 88.8557 149.382 88.1532 149.382 87.3584C149.382 86.5494 149.218 85.8539 148.892 85.272C148.565 84.6759 148.111 84.2147 147.529 83.8882C146.962 83.5618 146.316 83.3986 145.592 83.3986C144.868 83.3986 144.222 83.5618 143.655 83.8882C143.087 84.2147 142.633 84.6759 142.292 85.272C141.952 85.8539 141.781 86.5494 141.781 87.3584C141.781 88.1532 141.952 88.8557 142.292 89.466C142.633 90.0621 143.087 90.5234 143.655 90.8498C144.222 91.1762 144.868 91.3394 145.592 91.3394ZM159.021 93.1277C158.055 93.1277 157.204 92.9503 156.466 92.5955C155.742 92.2407 155.174 91.7014 154.763 90.9775C154.365 90.2395 154.167 89.317 154.167 88.2099V81.7167H156.21V87.9758C156.21 89.0828 156.473 89.9131 156.998 90.4666C157.537 91.0201 158.29 91.2969 159.255 91.2969C159.964 91.2969 160.582 91.1549 161.107 90.8711C161.632 90.573 162.036 90.1473 162.32 89.5937C162.604 89.026 162.746 88.3448 162.746 87.55V81.7167H164.79V93H162.853V89.9557L163.172 90.7646C162.803 91.5169 162.249 92.0988 161.511 92.5103C160.773 92.9219 159.943 93.1277 159.021 93.1277ZM176.782 93L172.588 81.7167H174.526L178.251 91.9355H177.336L181.21 81.7167H182.935L186.724 91.9355H185.83L189.641 81.7167H191.472L187.257 93H185.298L181.743 83.6753H182.339L178.741 93H176.782ZM193.546 93V81.7167H195.589V93H193.546ZM194.568 79.5453C194.17 79.5453 193.837 79.4175 193.567 79.162C193.312 78.9066 193.184 78.5943 193.184 78.2253C193.184 77.8421 193.312 77.5228 193.567 77.2673C193.837 77.0118 194.17 76.8841 194.568 76.8841C194.965 76.8841 195.291 77.0118 195.547 77.2673C195.817 77.5086 195.951 77.8137 195.951 78.1827C195.951 78.566 195.824 78.8924 195.568 79.162C195.313 79.4175 194.979 79.5453 194.568 79.5453ZM199.492 93V77.2034H201.535V93H199.492ZM205.438 93V77.2034H207.481V93H205.438ZM222.019 93.1277C220.869 93.1277 219.84 92.8794 218.932 92.3826C218.038 91.8859 217.335 91.2046 216.824 90.3389C216.313 89.4731 216.058 88.4796 216.058 87.3584C216.058 86.2371 216.313 85.2436 216.824 84.3779C217.335 83.5121 218.038 82.838 218.932 82.3554C219.84 81.8587 220.869 81.6103 222.019 81.6103C223.041 81.6103 223.949 81.8161 224.744 82.2277C225.553 82.6251 226.177 83.2212 226.617 84.016L225.063 85.0166C224.694 84.463 224.24 84.0586 223.701 83.8031C223.176 83.5334 222.608 83.3986 221.998 83.3986C221.259 83.3986 220.6 83.5618 220.018 83.8882C219.436 84.2147 218.974 84.6759 218.634 85.272C218.293 85.8539 218.123 86.5494 218.123 87.3584C218.123 88.1674 218.293 88.8699 218.634 89.466C218.974 90.0621 219.436 90.5234 220.018 90.8498C220.6 91.1762 221.259 91.3394 221.998 91.3394C222.608 91.3394 223.176 91.2117 223.701 90.9562C224.24 90.6866 224.694 90.275 225.063 89.7215L226.617 90.7008C226.177 91.4814 225.553 92.0846 224.744 92.5103C223.949 92.9219 223.041 93.1277 222.019 93.1277ZM233.93 93.1277C232.794 93.1277 231.786 92.8794 230.907 92.3826C230.027 91.8859 229.331 91.2046 228.82 90.3389C228.309 89.4589 228.054 88.4654 228.054 87.3584C228.054 86.2371 228.309 85.2436 228.82 84.3779C229.331 83.5121 230.027 82.838 230.907 82.3554C231.786 81.8587 232.794 81.6103 233.93 81.6103C235.051 81.6103 236.051 81.8587 236.931 82.3554C237.825 82.838 238.521 83.5121 239.018 84.3779C239.529 85.2295 239.784 86.223 239.784 87.3584C239.784 88.4796 239.529 89.4731 239.018 90.3389C238.521 91.2046 237.825 91.8859 236.931 92.3826C236.051 92.8794 235.051 93.1277 233.93 93.1277ZM233.93 91.3394C234.653 91.3394 235.299 91.1762 235.867 90.8498C236.449 90.5234 236.903 90.0621 237.229 89.466C237.556 88.8557 237.719 88.1532 237.719 87.3584C237.719 86.5494 237.556 85.8539 237.229 85.272C236.903 84.6759 236.449 84.2147 235.867 83.8882C235.299 83.5618 234.653 83.3986 233.93 83.3986C233.206 83.3986 232.56 83.5618 231.992 83.8882C231.425 84.2147 230.97 84.6759 230.63 85.272C230.289 85.8539 230.119 86.5494 230.119 87.3584C230.119 88.1532 230.289 88.8557 230.63 89.466C230.97 90.0621 231.425 90.5234 231.992 90.8498C232.56 91.1762 233.206 91.3394 233.93 91.3394ZM248.635 81.6103C249.558 81.6103 250.367 81.7877 251.062 82.1425C251.772 82.4973 252.325 83.0367 252.723 83.7605C253.12 84.4843 253.319 85.3998 253.319 86.5068V93H251.275V86.741C251.275 85.6481 251.006 84.825 250.466 84.2714C249.941 83.7179 249.196 83.4412 248.231 83.4412C247.507 83.4412 246.875 83.5831 246.336 83.867C245.797 84.1508 245.378 84.5695 245.08 85.123C244.796 85.6765 244.654 86.3649 244.654 87.1881V93H242.611V81.7167H244.569V84.7611L244.25 83.9521C244.619 83.2141 245.187 82.6393 245.953 82.2277C246.719 81.8161 247.613 81.6103 248.635 81.6103ZM260.976 93.1277C259.841 93.1277 258.961 92.8226 258.336 92.2123C257.712 91.602 257.399 90.7292 257.399 89.5937V79.2472H259.443V89.5086C259.443 90.1189 259.592 90.5872 259.89 90.9137C260.202 91.2401 260.642 91.4033 261.21 91.4033C261.849 91.4033 262.381 91.2259 262.807 90.8711L263.445 92.34C263.133 92.6097 262.757 92.8084 262.317 92.9361C261.891 93.0639 261.444 93.1277 260.976 93.1277ZM255.483 83.3986V81.7167H262.679V83.3986H255.483ZM265.916 93V81.7167H267.96V93H265.916ZM266.938 79.5453C266.541 79.5453 266.207 79.4175 265.938 79.162C265.682 78.9066 265.554 78.5943 265.554 78.2253C265.554 77.8421 265.682 77.5228 265.938 77.2673C266.207 77.0118 266.541 76.8841 266.938 76.8841C267.336 76.8841 267.662 77.0118 267.918 77.2673C268.187 77.5086 268.322 77.8137 268.322 78.1827C268.322 78.566 268.194 78.8924 267.939 79.162C267.683 79.4175 267.35 79.5453 266.938 79.5453ZM277.887 81.6103C278.81 81.6103 279.619 81.7877 280.314 82.1425C281.024 82.4973 281.577 83.0367 281.975 83.7605C282.372 84.4843 282.571 85.3998 282.571 86.5068V93H280.527V86.741C280.527 85.6481 280.257 84.825 279.718 84.2714C279.193 83.7179 278.448 83.4412 277.483 83.4412C276.759 83.4412 276.127 83.5831 275.588 83.867C275.049 84.1508 274.63 84.5695 274.332 85.123C274.048 85.6765 273.906 86.3649 273.906 87.1881V93H271.862V81.7167H273.821V84.7611L273.502 83.9521C273.871 83.2141 274.438 82.6393 275.205 82.2277C275.971 81.8161 276.865 81.6103 277.887 81.6103ZM291.101 93.1277C290.135 93.1277 289.284 92.9503 288.546 92.5955C287.822 92.2407 287.254 91.7014 286.843 90.9775C286.445 90.2395 286.247 89.317 286.247 88.2099V81.7167H288.29V87.9758C288.29 89.0828 288.553 89.9131 289.078 90.4666C289.617 91.0201 290.37 91.2969 291.335 91.2969C292.044 91.2969 292.662 91.1549 293.187 90.8711C293.712 90.573 294.117 90.1473 294.4 89.5937C294.684 89.026 294.826 88.3448 294.826 87.55V81.7167H296.87V93H294.933V89.9557L295.252 90.7646C294.883 91.5169 294.329 92.0988 293.591 92.5103C292.853 92.9219 292.023 93.1277 291.101 93.1277ZM305.785 93.1277C304.579 93.1277 303.514 92.8794 302.592 92.3826C301.683 91.8859 300.974 91.2046 300.463 90.3389C299.966 89.4731 299.718 88.4796 299.718 87.3584C299.718 86.2371 299.959 85.2436 300.441 84.3779C300.938 83.5121 301.612 82.838 302.464 82.3554C303.33 81.8587 304.302 81.6103 305.38 81.6103C306.473 81.6103 307.438 81.8516 308.276 82.3341C309.113 82.8167 309.766 83.4979 310.234 84.3779C310.717 85.2436 310.958 86.2584 310.958 87.4222C310.958 87.5074 310.951 87.6067 310.937 87.7203C310.937 87.8338 310.93 87.9403 310.916 88.0396H301.314V86.5707H309.851L309.021 87.0816C309.035 86.3578 308.886 85.712 308.574 85.1443C308.262 84.5766 307.829 84.1366 307.275 83.8244C306.736 83.4979 306.104 83.3347 305.38 83.3347C304.671 83.3347 304.039 83.4979 303.486 83.8244C302.932 84.1366 302.499 84.5837 302.187 85.1656C301.875 85.7333 301.719 86.3862 301.719 87.1242V87.4648C301.719 88.217 301.889 88.8912 302.23 89.4873C302.585 90.0692 303.074 90.5234 303.699 90.8498C304.323 91.1762 305.04 91.3394 305.849 91.3394C306.516 91.3394 307.119 91.2259 307.658 90.9988C308.212 90.7717 308.694 90.4311 309.106 89.9769L310.234 91.2969C309.723 91.893 309.085 92.3471 308.318 92.6594C307.566 92.9716 306.722 93.1277 305.785 93.1277ZM323.388 93.1277C322.253 93.1277 321.373 92.8226 320.748 92.2123C320.124 91.602 319.812 90.7292 319.812 89.5937V79.2472H321.855V89.5086C321.855 90.1189 322.004 90.5872 322.302 90.9137C322.615 91.2401 323.055 91.4033 323.622 91.4033C324.261 91.4033 324.793 91.2259 325.219 90.8711L325.858 92.34C325.545 92.6097 325.169 92.8084 324.729 92.9361C324.304 93.0639 323.856 93.1277 323.388 93.1277ZM317.896 83.3986V81.7167H325.091V83.3986H317.896ZM332.787 93.1277C331.652 93.1277 330.644 92.8794 329.764 92.3826C328.884 91.8859 328.188 91.2046 327.678 90.3389C327.167 89.4589 326.911 88.4654 326.911 87.3584C326.911 86.2371 327.167 85.2436 327.678 84.3779C328.188 83.5121 328.884 82.838 329.764 82.3554C330.644 81.8587 331.652 81.6103 332.787 81.6103C333.908 81.6103 334.909 81.8587 335.789 82.3554C336.683 82.838 337.378 83.5121 337.875 84.3779C338.386 85.2295 338.641 86.223 338.641 87.3584C338.641 88.4796 338.386 89.4731 337.875 90.3389C337.378 91.2046 336.683 91.8859 335.789 92.3826C334.909 92.8794 333.908 93.1277 332.787 93.1277ZM332.787 91.3394C333.511 91.3394 334.157 91.1762 334.724 90.8498C335.306 90.5234 335.76 90.0621 336.087 89.466C336.413 88.8557 336.576 88.1532 336.576 87.3584C336.576 86.5494 336.413 85.8539 336.087 85.272C335.76 84.6759 335.306 84.2147 334.724 83.8882C334.157 83.5618 333.511 83.3986 332.787 83.3986C332.063 83.3986 331.417 83.5618 330.85 83.8882C330.282 84.2147 329.828 84.6759 329.487 85.272C329.147 85.8539 328.976 86.5494 328.976 87.3584C328.976 88.1532 329.147 88.8557 329.487 89.466C329.828 90.0621 330.282 90.5234 330.85 90.8498C331.417 91.1762 332.063 91.3394 332.787 91.3394ZM352.124 97.2578C351.088 97.2578 350.081 97.1088 349.101 96.8108C348.136 96.5269 347.348 96.1153 346.738 95.576L347.717 94.0006C348.243 94.4548 348.888 94.8096 349.655 95.065C350.421 95.3347 351.223 95.4695 352.06 95.4695C353.395 95.4695 354.374 95.1573 354.998 94.5328C355.623 93.9083 355.935 92.9574 355.935 91.6801V89.2957L356.148 87.0603L356.042 84.8037V81.7167H357.979V91.4672C357.979 93.4542 357.482 94.916 356.489 95.8527C355.495 96.7895 354.04 97.2578 352.124 97.2578ZM351.869 92.5316C350.776 92.5316 349.797 92.3046 348.931 91.8504C348.079 91.382 347.398 90.7363 346.887 89.9131C346.39 89.0899 346.142 88.139 346.142 87.0603C346.142 85.9675 346.39 85.0166 346.887 84.2076C347.398 83.3844 348.079 82.7457 348.931 82.2916C349.797 81.8374 350.776 81.6103 351.869 81.6103C352.834 81.6103 353.714 81.809 354.509 82.2064C355.304 82.5896 355.935 83.1857 356.403 83.9947C356.886 84.8037 357.127 85.8256 357.127 87.0603C357.127 88.2809 356.886 89.2957 356.403 90.1047C355.935 90.9137 355.304 91.524 354.509 91.9355C353.714 92.3329 352.834 92.5316 351.869 92.5316ZM352.103 90.7433C352.855 90.7433 353.522 90.5872 354.104 90.275C354.686 89.9627 355.14 89.5299 355.467 88.9763C355.807 88.4228 355.978 87.7842 355.978 87.0603C355.978 86.3365 355.807 85.6978 355.467 85.1443C355.14 84.5908 354.686 84.165 354.104 83.867C353.522 83.5547 352.855 83.3986 352.103 83.3986C351.351 83.3986 350.677 83.5547 350.081 83.867C349.499 84.165 349.037 84.5908 348.697 85.1443C348.37 85.6978 348.207 86.3365 348.207 87.0603C348.207 87.7842 348.37 88.4228 348.697 88.9763C349.037 89.5299 349.499 89.9627 350.081 90.275C350.677 90.5872 351.351 90.7433 352.103 90.7433ZM361.884 93V81.7167H363.842V84.7824L363.651 84.016C363.963 83.2354 364.488 82.6393 365.226 82.2277C365.964 81.8161 366.873 81.6103 367.951 81.6103V83.5902C367.866 83.576 367.781 83.5689 367.696 83.5689C367.625 83.5689 367.554 83.5689 367.483 83.5689C366.39 83.5689 365.524 83.8953 364.886 84.5482C364.247 85.2011 363.928 86.1449 363.928 87.3797V93H361.884ZM375.199 93.1277C374.064 93.1277 373.056 92.8794 372.176 92.3826C371.296 91.8859 370.6 91.2046 370.09 90.3389C369.579 89.4589 369.323 88.4654 369.323 87.3584C369.323 86.2371 369.579 85.2436 370.09 84.3779C370.6 83.5121 371.296 82.838 372.176 82.3554C373.056 81.8587 374.064 81.6103 375.199 81.6103C376.32 81.6103 377.321 81.8587 378.201 82.3554C379.095 82.838 379.79 83.5121 380.287 84.3779C380.798 85.2295 381.053 86.223 381.053 87.3584C381.053 88.4796 380.798 89.4731 380.287 90.3389C379.79 91.2046 379.095 91.8859 378.201 92.3826C377.321 92.8794 376.32 93.1277 375.199 93.1277ZM375.199 91.3394C375.923 91.3394 376.569 91.1762 377.136 90.8498C377.718 90.5234 378.172 90.0621 378.499 89.466C378.825 88.8557 378.988 88.1532 378.988 87.3584C378.988 86.5494 378.825 85.8539 378.499 85.272C378.172 84.6759 377.718 84.2147 377.136 83.8882C376.569 83.5618 375.923 83.3986 375.199 83.3986C374.475 83.3986 373.829 83.5618 373.262 83.8882C372.694 84.2147 372.24 84.6759 371.899 85.272C371.558 85.8539 371.388 86.5494 371.388 87.3584C371.388 88.1532 371.558 88.8557 371.899 89.466C372.24 90.0621 372.694 90.5234 373.262 90.8498C373.829 91.1762 374.475 91.3394 375.199 91.3394ZM385.952 93L381.758 81.7167H383.696L387.421 91.9355H386.506L390.381 81.7167H392.105L395.894 91.9355H395L398.811 81.7167H400.642L396.427 93H394.468L390.913 83.6753H391.509L387.911 93H385.952ZM415.437 93V90.6156L415.331 90.1685V86.1023C415.331 85.2366 415.075 84.5695 414.564 84.1011C414.068 83.6186 413.315 83.3773 412.308 83.3773C411.641 83.3773 410.988 83.4908 410.349 83.7179C409.71 83.9308 409.171 84.2218 408.731 84.5908L407.88 83.058C408.462 82.5896 409.157 82.2348 409.966 81.9935C410.789 81.738 411.648 81.6103 412.542 81.6103C414.089 81.6103 415.281 81.9864 416.119 82.7386C416.956 83.4908 417.375 84.6405 417.375 86.1875V93H415.437ZM411.733 93.1277C410.896 93.1277 410.158 92.9858 409.519 92.702C408.894 92.4181 408.412 92.0278 408.071 91.531C407.731 91.0201 407.56 90.4453 407.56 89.8066C407.56 89.1963 407.702 88.6428 407.986 88.1461C408.284 87.6493 408.76 87.2519 409.412 86.9539C410.079 86.6558 410.974 86.5068 412.095 86.5068H415.671V87.9758H412.18C411.158 87.9758 410.47 88.1461 410.115 88.4867C409.76 88.8273 409.583 89.2389 409.583 89.7215C409.583 90.275 409.803 90.7221 410.243 91.0627C410.683 91.3891 411.293 91.5523 412.074 91.5523C412.84 91.5523 413.507 91.382 414.075 91.0414C414.657 90.7008 415.075 90.204 415.331 89.5512L415.735 90.9562C415.466 91.6233 414.99 92.1555 414.309 92.5529C413.628 92.9361 412.769 93.1277 411.733 93.1277ZM427.182 81.6103C428.104 81.6103 428.913 81.7877 429.609 82.1425C430.318 82.4973 430.872 83.0367 431.269 83.7605C431.666 84.4843 431.865 85.3998 431.865 86.5068V93H429.821V86.741C429.821 85.6481 429.552 84.825 429.012 84.2714C428.487 83.7179 427.742 83.4412 426.777 83.4412C426.053 83.4412 425.422 83.5831 424.882 83.867C424.343 84.1508 423.924 84.5695 423.626 85.123C423.342 85.6765 423.2 86.3649 423.2 87.1881V93H421.157V81.7167H423.115V84.7611L422.796 83.9521C423.165 83.2141 423.733 82.6393 424.499 82.2277C425.266 81.8161 426.16 81.6103 427.182 81.6103ZM440.31 93.1277C439.217 93.1277 438.238 92.8865 437.372 92.4039C436.52 91.9213 435.846 91.2472 435.349 90.3814C434.853 89.5157 434.604 88.508 434.604 87.3584C434.604 86.2088 434.853 85.2082 435.349 84.3566C435.846 83.4908 436.52 82.8167 437.372 82.3341C438.238 81.8516 439.217 81.6103 440.31 81.6103C441.261 81.6103 442.119 81.8232 442.886 82.249C443.652 82.6748 444.263 83.3134 444.717 84.165C445.185 85.0166 445.419 86.081 445.419 87.3584C445.419 88.6357 445.192 89.7002 444.738 90.5517C444.298 91.4033 443.695 92.0491 442.928 92.4891C442.162 92.9148 441.289 93.1277 440.31 93.1277ZM440.48 91.3394C441.19 91.3394 441.828 91.1762 442.396 90.8498C442.978 90.5234 443.432 90.0621 443.759 89.466C444.099 88.8557 444.27 88.1532 444.27 87.3584C444.27 86.5494 444.099 85.8539 443.759 85.272C443.432 84.6759 442.978 84.2147 442.396 83.8882C441.828 83.5618 441.19 83.3986 440.48 83.3986C439.756 83.3986 439.111 83.5618 438.543 83.8882C437.975 84.2147 437.521 84.6759 437.18 85.272C436.84 85.8539 436.669 86.5494 436.669 87.3584C436.669 88.1532 436.84 88.8557 437.18 89.466C437.521 90.0621 437.975 90.5234 438.543 90.8498C439.111 91.1762 439.756 91.3394 440.48 91.3394ZM444.333 93V89.9557L444.461 87.3371L444.248 84.7185V77.2034H446.292V93H444.333ZM469.991 81.6103C470.899 81.6103 471.701 81.7877 472.397 82.1425C473.092 82.4973 473.632 83.0367 474.015 83.7605C474.412 84.4843 474.611 85.3998 474.611 86.5068V93H472.567V86.741C472.567 85.6481 472.312 84.825 471.801 84.2714C471.29 83.7179 470.573 83.4412 469.65 83.4412C468.969 83.4412 468.373 83.5831 467.862 83.867C467.351 84.1508 466.954 84.5695 466.67 85.123C466.4 85.6765 466.265 86.3649 466.265 87.1881V93H464.222V86.741C464.222 85.6481 463.966 84.825 463.455 84.2714C462.959 83.7179 462.242 83.4412 461.305 83.4412C460.638 83.4412 460.049 83.5831 459.538 83.867C459.027 84.1508 458.63 84.5695 458.346 85.123C458.062 85.6765 457.92 86.3649 457.92 87.1881V93H455.876V81.7167H457.835V84.7185L457.516 83.9521C457.87 83.2141 458.417 82.6393 459.155 82.2277C459.893 81.8161 460.752 81.6103 461.731 81.6103C462.81 81.6103 463.739 81.88 464.52 82.4193C465.3 82.9444 465.811 83.7463 466.053 84.825L465.222 84.4843C465.563 83.6186 466.159 82.9231 467.011 82.398C467.862 81.8729 468.856 81.6103 469.991 81.6103ZM485.375 93V90.6156L485.269 90.1685V86.1023C485.269 85.2366 485.014 84.5695 484.503 84.1011C484.006 83.6186 483.254 83.3773 482.246 83.3773C481.579 83.3773 480.926 83.4908 480.287 83.7179C479.649 83.9308 479.109 84.2218 478.669 84.5908L477.818 83.058C478.4 82.5896 479.095 82.2348 479.904 81.9935C480.727 81.738 481.586 81.6103 482.48 81.6103C484.027 81.6103 485.219 81.9864 486.057 82.7386C486.894 83.4908 487.313 84.6405 487.313 86.1875V93H485.375ZM481.671 93.1277C480.834 93.1277 480.096 92.9858 479.457 92.702C478.833 92.4181 478.35 92.0278 478.009 91.531C477.669 91.0201 477.498 90.4453 477.498 89.8066C477.498 89.1963 477.64 88.6428 477.924 88.1461C478.222 87.6493 478.698 87.2519 479.351 86.9539C480.018 86.6558 480.912 86.5068 482.033 86.5068H485.61V87.9758H482.118C481.096 87.9758 480.408 88.1461 480.053 88.4867C479.698 88.8273 479.521 89.2389 479.521 89.7215C479.521 90.275 479.741 90.7221 480.181 91.0627C480.621 91.3891 481.231 91.5523 482.012 91.5523C482.778 91.5523 483.445 91.382 484.013 91.0414C484.595 90.7008 485.014 90.204 485.269 89.5512L485.674 90.9562C485.404 91.6233 484.928 92.1555 484.247 92.5529C483.566 92.9361 482.707 93.1277 481.671 93.1277ZM492.755 90.275L492.798 87.6564L499.291 81.7167H501.761L496.779 86.6133L495.672 87.55L492.755 90.275ZM491.095 93V77.2034H493.139V93H491.095ZM499.717 93L495.289 87.5074L496.609 85.8681L502.229 93H499.717ZM508.78 93.1277C507.574 93.1277 506.51 92.8794 505.587 92.3826C504.679 91.8859 503.969 91.2046 503.458 90.3389C502.961 89.4731 502.713 88.4796 502.713 87.3584C502.713 86.2371 502.954 85.2436 503.437 84.3779C503.934 83.5121 504.608 82.838 505.459 82.3554C506.325 81.8587 507.297 81.6103 508.376 81.6103C509.469 81.6103 510.434 81.8516 511.271 82.3341C512.109 82.8167 512.761 83.4979 513.23 84.3779C513.712 85.2436 513.954 86.2584 513.954 87.4222C513.954 87.5074 513.947 87.6067 513.932 87.7203C513.932 87.8338 513.925 87.9403 513.911 88.0396H504.31V86.5707H512.847L512.016 87.0816C512.031 86.3578 511.882 85.712 511.569 85.1443C511.257 84.5766 510.824 84.1366 510.271 83.8244C509.731 83.4979 509.1 83.3347 508.376 83.3347C507.666 83.3347 507.035 83.4979 506.481 83.8244C505.928 84.1366 505.495 84.5837 505.183 85.1656C504.87 85.7333 504.714 86.3862 504.714 87.1242V87.4648C504.714 88.217 504.884 88.8912 505.225 89.4873C505.58 90.0692 506.07 90.5234 506.694 90.8498C507.319 91.1762 508.035 91.3394 508.844 91.3394C509.511 91.3394 510.115 91.2259 510.654 90.9988C511.207 90.7717 511.69 90.4311 512.102 89.9769L513.23 91.2969C512.719 91.893 512.08 92.3471 511.314 92.6594C510.562 92.9716 509.717 93.1277 508.78 93.1277ZM536.624 81.6103C537.532 81.6103 538.334 81.7877 539.029 82.1425C539.725 82.4973 540.264 83.0367 540.647 83.7605C541.045 84.4843 541.243 85.3998 541.243 86.5068V93H539.2V86.741C539.2 85.6481 538.944 84.825 538.433 84.2714C537.922 83.7179 537.206 83.4412 536.283 83.4412C535.602 83.4412 535.006 83.5831 534.495 83.867C533.984 84.1508 533.586 84.5695 533.303 85.123C533.033 85.6765 532.898 86.3649 532.898 87.1881V93H530.854V86.741C530.854 85.6481 530.599 84.825 530.088 84.2714C529.591 83.7179 528.874 83.4412 527.938 83.4412C527.271 83.4412 526.682 83.5831 526.171 83.867C525.66 84.1508 525.262 84.5695 524.978 85.123C524.695 85.6765 524.553 86.3649 524.553 87.1881V93H522.509V81.7167H524.468V84.7185L524.148 83.9521C524.503 83.2141 525.049 82.6393 525.787 82.2277C526.525 81.8161 527.384 81.6103 528.363 81.6103C529.442 81.6103 530.372 81.88 531.152 82.4193C531.933 82.9444 532.444 83.7463 532.685 84.825L531.855 84.4843C532.196 83.6186 532.792 82.9231 533.643 82.398C534.495 81.8729 535.488 81.6103 536.624 81.6103ZM549.837 93.1277C548.701 93.1277 547.693 92.8794 546.813 92.3826C545.934 91.8859 545.238 91.2046 544.727 90.3389C544.216 89.4589 543.961 88.4654 543.961 87.3584C543.961 86.2371 544.216 85.2436 544.727 84.3779C545.238 83.5121 545.934 82.838 546.813 82.3554C547.693 81.8587 548.701 81.6103 549.837 81.6103C550.958 81.6103 551.958 81.8587 552.838 82.3554C553.732 82.838 554.428 83.5121 554.925 84.3779C555.436 85.2295 555.691 86.223 555.691 87.3584C555.691 88.4796 555.436 89.4731 554.925 90.3389C554.428 91.2046 553.732 91.8859 552.838 92.3826C551.958 92.8794 550.958 93.1277 549.837 93.1277ZM549.837 91.3394C550.56 91.3394 551.206 91.1762 551.774 90.8498C552.356 90.5234 552.81 90.0621 553.136 89.466C553.463 88.8557 553.626 88.1532 553.626 87.3584C553.626 86.5494 553.463 85.8539 553.136 85.272C552.81 84.6759 552.356 84.2147 551.774 83.8882C551.206 83.5618 550.56 83.3986 549.837 83.3986C549.113 83.3986 548.467 83.5618 547.899 83.8882C547.332 84.2147 546.877 84.6759 546.537 85.272C546.196 85.8539 546.026 86.5494 546.026 87.3584C546.026 88.1532 546.196 88.8557 546.537 89.466C546.877 90.0621 547.332 90.5234 547.899 90.8498C548.467 91.1762 549.113 91.3394 549.837 91.3394ZM558.518 93V81.7167H560.476V84.7824L560.285 84.016C560.597 83.2354 561.122 82.6393 561.86 82.2277C562.598 81.8161 563.506 81.6103 564.585 81.6103V83.5902C564.5 83.576 564.415 83.5689 564.329 83.5689C564.258 83.5689 564.188 83.5689 564.117 83.5689C563.024 83.5689 562.158 83.8953 561.519 84.5482C560.881 85.2011 560.561 86.1449 560.561 87.3797V93H558.518ZM572.024 93.1277C570.818 93.1277 569.753 92.8794 568.831 92.3826C567.922 91.8859 567.213 91.2046 566.702 90.3389C566.205 89.4731 565.957 88.4796 565.957 87.3584C565.957 86.2371 566.198 85.2436 566.681 84.3779C567.177 83.5121 567.852 82.838 568.703 82.3554C569.569 81.8587 570.541 81.6103 571.62 81.6103C572.713 81.6103 573.678 81.8516 574.515 82.3341C575.352 82.8167 576.005 83.4979 576.474 84.3779C576.956 85.2436 577.197 86.2584 577.197 87.4222C577.197 87.5074 577.19 87.6067 577.176 87.7203C577.176 87.8338 577.169 87.9403 577.155 88.0396H567.553V86.5707H576.09L575.26 87.0816C575.274 86.3578 575.125 85.712 574.813 85.1443C574.501 84.5766 574.068 84.1366 573.514 83.8244C572.975 83.4979 572.344 83.3347 571.62 83.3347C570.91 83.3347 570.278 83.4979 569.725 83.8244C569.171 84.1366 568.739 84.5837 568.426 85.1656C568.114 85.7333 567.958 86.3862 567.958 87.1242V87.4648C567.958 88.217 568.128 88.8912 568.469 89.4873C568.824 90.0692 569.313 90.5234 569.938 90.8498C570.562 91.1762 571.279 91.3394 572.088 91.3394C572.755 91.3394 573.358 91.2259 573.898 90.9988C574.451 90.7717 574.934 90.4311 575.345 89.9769L576.474 91.2969C575.963 91.893 575.324 92.3471 574.558 92.6594C573.805 92.9716 572.961 93.1277 572.024 93.1277ZM40.9196 119.128C39.9828 119.128 39.1242 118.915 38.3436 118.489C37.5772 118.049 36.9598 117.403 36.4914 116.552C36.0373 115.7 35.8102 114.636 35.8102 113.358C35.8102 112.081 36.0302 111.017 36.4701 110.165C36.9243 109.313 37.5346 108.675 38.301 108.249C39.0816 107.823 39.9545 107.61 40.9196 107.61C42.0266 107.61 43.0059 107.852 43.8575 108.334C44.709 108.817 45.3832 109.491 45.8799 110.357C46.3767 111.208 46.6251 112.209 46.6251 113.358C46.6251 114.508 46.3767 115.516 45.8799 116.381C45.3832 117.247 44.709 117.921 43.8575 118.404C43.0059 118.886 42.0266 119.128 40.9196 119.128ZM34.9373 123.13V107.717H36.8959V110.761L36.7682 113.38L36.9811 115.998V123.13H34.9373ZM40.7493 117.339C41.4731 117.339 42.1189 117.176 42.6866 116.85C43.2685 116.523 43.7226 116.062 44.0491 115.466C44.3897 114.856 44.56 114.153 44.56 113.358C44.56 112.549 44.3897 111.854 44.0491 111.272C43.7226 110.676 43.2685 110.215 42.6866 109.888C42.1189 109.562 41.4731 109.399 40.7493 109.399C40.0396 109.399 39.3938 109.562 38.8119 109.888C38.2442 110.215 37.7901 110.676 37.4494 111.272C37.123 111.854 36.9598 112.549 36.9598 113.358C36.9598 114.153 37.123 114.856 37.4494 115.466C37.7901 116.062 38.2442 116.523 38.8119 116.85C39.3938 117.176 40.0396 117.339 40.7493 117.339ZM49.4489 119V107.717H51.4075V110.782L51.2159 110.016C51.5281 109.235 52.0532 108.639 52.7913 108.228C53.5293 107.816 54.4376 107.61 55.5163 107.61V109.59C55.4311 109.576 55.346 109.569 55.2608 109.569C55.1898 109.569 55.1189 109.569 55.0479 109.569C53.9551 109.569 53.0893 109.895 52.4506 110.548C51.812 111.201 51.4926 112.145 51.4926 113.38V119H49.4489ZM62.7639 119.128C61.6285 119.128 60.6208 118.879 59.7408 118.383C58.8609 117.886 58.1654 117.205 57.6545 116.339C57.1436 115.459 56.8881 114.465 56.8881 113.358C56.8881 112.237 57.1436 111.244 57.6545 110.378C58.1654 109.512 58.8609 108.838 59.7408 108.355C60.6208 107.859 61.6285 107.61 62.7639 107.61C63.8851 107.61 64.8857 107.859 65.7657 108.355C66.6598 108.838 67.3553 109.512 67.852 110.378C68.363 111.229 68.6184 112.223 68.6184 113.358C68.6184 114.48 68.363 115.473 67.852 116.339C67.3553 117.205 66.6598 117.886 65.7657 118.383C64.8857 118.879 63.8851 119.128 62.7639 119.128ZM62.7639 117.339C63.4877 117.339 64.1335 117.176 64.7012 116.85C65.2831 116.523 65.7373 116.062 66.0637 115.466C66.3902 114.856 66.5534 114.153 66.5534 113.358C66.5534 112.549 66.3902 111.854 66.0637 111.272C65.7373 110.676 65.2831 110.215 64.7012 109.888C64.1335 109.562 63.4877 109.399 62.7639 109.399C62.0401 109.399 61.3943 109.562 60.8266 109.888C60.2589 110.215 59.8047 110.676 59.4641 111.272C59.1235 111.854 58.9531 112.549 58.9531 113.358C58.9531 114.153 59.1235 114.856 59.4641 115.466C59.8047 116.062 60.2589 116.523 60.8266 116.85C61.3943 117.176 62.0401 117.339 62.7639 117.339ZM71.7429 119V106.716C71.7429 105.609 72.0623 104.729 72.701 104.076C73.3538 103.409 74.2764 103.076 75.4685 103.076C75.9085 103.076 76.3272 103.132 76.7246 103.246C77.1362 103.345 77.4839 103.509 77.7678 103.736L77.1504 105.29C76.9375 105.119 76.6962 104.992 76.4266 104.907C76.1569 104.807 75.873 104.758 75.575 104.758C74.9789 104.758 74.5247 104.928 74.2125 105.268C73.9002 105.595 73.7441 106.085 73.7441 106.737V108.249L73.7867 109.186V119H71.7429ZM69.8269 109.399V107.717H77.0227V109.399H69.8269ZM78.96 119V107.717H81.0037V119H78.96ZM79.9818 105.545C79.5844 105.545 79.2509 105.418 78.9813 105.162C78.7258 104.907 78.5981 104.594 78.5981 104.225C78.5981 103.842 78.7258 103.523 78.9813 103.267C79.2509 103.012 79.5844 102.884 79.9818 102.884C80.3792 102.884 80.7057 103.012 80.9611 103.267C81.2308 103.509 81.3656 103.814 81.3656 104.183C81.3656 104.566 81.2379 104.892 80.9824 105.162C80.727 105.418 80.3934 105.545 79.9818 105.545ZM88.7708 119.128C87.6354 119.128 86.7554 118.823 86.1309 118.212C85.5064 117.602 85.1942 116.729 85.1942 115.594V105.247H87.238V115.509C87.238 116.119 87.387 116.587 87.685 116.914C87.9973 117.24 88.4372 117.403 89.005 117.403C89.6436 117.403 90.1759 117.226 90.6016 116.871L91.2403 118.34C90.9281 118.61 90.552 118.808 90.112 118.936C89.6862 119.064 89.2391 119.128 88.7708 119.128ZM83.2782 109.399V107.717H90.4739V109.399H83.2782Z" fill="white"/>
<path d="M65.5532 230.438C63.3943 230.438 61.2791 230.131 59.2077 229.519C57.1655 228.877 55.4442 228.002 54.0438 226.893L56.4945 222.473C57.6031 223.377 58.9451 224.107 60.5206 224.661C62.096 225.215 63.7444 225.492 65.4657 225.492C67.508 225.492 69.098 225.084 70.2358 224.267C71.3736 223.421 71.9425 222.283 71.9425 220.854C71.9425 219.453 71.4174 218.345 70.3671 217.528C69.3168 216.711 67.6247 216.302 65.2907 216.302H62.4899V212.408L71.2423 201.992L71.9863 204.136H55.5317V199.366H76.4063V203.174L67.6538 213.589L64.678 211.839H66.3847C70.1483 211.839 72.9637 212.685 74.8308 214.377C76.7272 216.04 77.6754 218.184 77.6754 220.81C77.6754 222.531 77.2378 224.121 76.3625 225.58C75.4873 227.039 74.1452 228.22 72.3364 229.125C70.5567 230 68.2957 230.438 65.5532 230.438ZM94.1751 230.438C91.7536 230.438 89.5655 229.825 87.6108 228.6C85.6853 227.374 84.1682 225.595 83.0595 223.261C81.9509 220.897 81.3966 218.038 81.3966 214.683C81.3966 211.328 81.9509 208.484 83.0595 206.15C84.1682 203.786 85.6853 201.992 87.6108 200.767C89.5655 199.541 91.7536 198.929 94.1751 198.929C96.6258 198.929 98.8139 199.541 100.739 200.767C102.665 201.992 104.182 203.786 105.291 206.15C106.429 208.484 106.997 211.328 106.997 214.683C106.997 218.038 106.429 220.897 105.291 223.261C104.182 225.595 102.665 227.374 100.739 228.6C98.8139 229.825 96.6258 230.438 94.1751 230.438ZM94.1751 225.492C95.6047 225.492 96.8446 225.113 97.8949 224.355C98.9452 223.567 99.7621 222.371 100.346 220.766C100.958 219.162 101.265 217.134 101.265 214.683C101.265 212.203 100.958 210.176 100.346 208.6C99.7621 206.996 98.9452 205.814 97.8949 205.055C96.8446 204.268 95.6047 203.874 94.1751 203.874C92.8039 203.874 91.5786 204.268 90.4991 205.055C89.4488 205.814 88.6173 206.996 88.0047 208.6C87.4212 210.176 87.1294 212.203 87.1294 214.683C87.1294 217.134 87.4212 219.162 88.0047 220.766C88.6173 222.371 89.4488 223.567 90.4991 224.355C91.5786 225.113 92.8039 225.492 94.1751 225.492ZM135.715 230.438C133.294 230.438 131.105 229.825 129.151 228.6C127.225 227.374 125.708 225.595 124.6 223.261C123.491 220.897 122.937 218.038 122.937 214.683C122.937 211.328 123.491 208.484 124.6 206.15C125.708 203.786 127.225 201.992 129.151 200.767C131.105 199.541 133.294 198.929 135.715 198.929C138.166 198.929 140.354 199.541 142.279 200.767C144.205 201.992 145.722 203.786 146.831 206.15C147.969 208.484 148.537 211.328 148.537 214.683C148.537 218.038 147.969 220.897 146.831 223.261C145.722 225.595 144.205 227.374 142.279 228.6C140.354 229.825 138.166 230.438 135.715 230.438ZM135.715 225.492C137.145 225.492 138.385 225.113 139.435 224.355C140.485 223.567 141.302 222.371 141.886 220.766C142.498 219.162 142.805 217.134 142.805 214.683C142.805 212.203 142.498 210.176 141.886 208.6C141.302 206.996 140.485 205.814 139.435 205.055C138.385 204.268 137.145 203.874 135.715 203.874C134.344 203.874 133.119 204.268 132.039 205.055C130.989 205.814 130.157 206.996 129.545 208.6C128.961 210.176 128.669 212.203 128.669 214.683C128.669 217.134 128.961 219.162 129.545 220.766C130.157 222.371 130.989 223.567 132.039 224.355C133.119 225.113 134.344 225.492 135.715 225.492ZM165.161 230.438C162.739 230.438 160.551 229.825 158.596 228.6C156.671 227.374 155.154 225.595 154.045 223.261C152.936 220.897 152.382 218.038 152.382 214.683C152.382 211.328 152.936 208.484 154.045 206.15C155.154 203.786 156.671 201.992 158.596 200.767C160.551 199.541 162.739 198.929 165.161 198.929C167.611 198.929 169.799 199.541 171.725 200.767C173.651 201.992 175.168 203.786 176.276 206.15C177.414 208.484 177.983 211.328 177.983 214.683C177.983 218.038 177.414 220.897 176.276 223.261C175.168 225.595 173.651 227.374 171.725 228.6C169.799 229.825 167.611 230.438 165.161 230.438ZM165.161 225.492C166.59 225.492 167.83 225.113 168.88 224.355C169.931 223.567 170.748 222.371 171.331 220.766C171.944 219.162 172.25 217.134 172.25 214.683C172.25 212.203 171.944 210.176 171.331 208.6C170.748 206.996 169.931 205.814 168.88 205.055C167.83 204.268 166.59 203.874 165.161 203.874C163.789 203.874 162.564 204.268 161.485 205.055C160.434 205.814 159.603 206.996 158.99 208.6C158.407 210.176 158.115 212.203 158.115 214.683C158.115 217.134 158.407 219.162 158.99 220.766C159.603 222.371 160.434 223.567 161.485 224.355C162.564 225.113 163.789 225.492 165.161 225.492ZM194.606 230.438C192.185 230.438 189.997 229.825 188.042 228.6C186.116 227.374 184.599 225.595 183.491 223.261C182.382 220.897 181.828 218.038 181.828 214.683C181.828 211.328 182.382 208.484 183.491 206.15C184.599 203.786 186.116 201.992 188.042 200.767C189.997 199.541 192.185 198.929 194.606 198.929C197.057 198.929 199.245 199.541 201.171 200.767C203.096 201.992 204.613 203.786 205.722 206.15C206.86 208.484 207.429 211.328 207.429 214.683C207.429 218.038 206.86 220.897 205.722 223.261C204.613 225.595 203.096 227.374 201.171 228.6C199.245 229.825 197.057 230.438 194.606 230.438ZM194.606 225.492C196.036 225.492 197.276 225.113 198.326 224.355C199.376 223.567 200.193 222.371 200.777 220.766C201.389 219.162 201.696 217.134 201.696 214.683C201.696 212.203 201.389 210.176 200.777 208.6C200.193 206.996 199.376 205.814 198.326 205.055C197.276 204.268 196.036 203.874 194.606 203.874C193.235 203.874 192.01 204.268 190.93 205.055C189.88 205.814 189.048 206.996 188.436 208.6C187.852 210.176 187.56 212.203 187.56 214.683C187.56 217.134 187.852 219.162 188.436 220.766C189.048 222.371 189.88 223.567 190.93 224.355C192.01 225.113 193.235 225.492 194.606 225.492ZM236.146 230.438C233.725 230.438 231.537 229.825 229.582 228.6C227.656 227.374 226.139 225.595 225.031 223.261C223.922 220.897 223.368 218.038 223.368 214.683C223.368 211.328 223.922 208.484 225.031 206.15C226.139 203.786 227.656 201.992 229.582 200.767C231.537 199.541 233.725 198.929 236.146 198.929C238.597 198.929 240.785 199.541 242.71 200.767C244.636 201.992 246.153 203.786 247.262 206.15C248.4 208.484 248.968 211.328 248.968 214.683C248.968 218.038 248.4 220.897 247.262 223.261C246.153 225.595 244.636 227.374 242.71 228.6C240.785 229.825 238.597 230.438 236.146 230.438ZM236.146 225.492C237.576 225.492 238.816 225.113 239.866 224.355C240.916 223.567 241.733 222.371 242.317 220.766C242.929 219.162 243.236 217.134 243.236 214.683C243.236 212.203 242.929 210.176 242.317 208.6C241.733 206.996 240.916 205.814 239.866 205.055C238.816 204.268 237.576 203.874 236.146 203.874C234.775 203.874 233.55 204.268 232.47 205.055C231.42 205.814 230.588 206.996 229.976 208.6C229.392 210.176 229.1 212.203 229.1 214.683C229.1 217.134 229.392 219.162 229.976 220.766C230.588 222.371 231.42 223.567 232.47 224.355C233.55 225.113 234.775 225.492 236.146 225.492ZM265.592 230.438C263.17 230.438 260.982 229.825 259.027 228.6C257.102 227.374 255.585 225.595 254.476 223.261C253.367 220.897 252.813 218.038 252.813 214.683C252.813 211.328 253.367 208.484 254.476 206.15C255.585 203.786 257.102 201.992 259.027 200.767C260.982 199.541 263.17 198.929 265.592 198.929C268.042 198.929 270.23 199.541 272.156 200.767C274.082 201.992 275.599 203.786 276.707 206.15C277.845 208.484 278.414 211.328 278.414 214.683C278.414 218.038 277.845 220.897 276.707 223.261C275.599 225.595 274.082 227.374 272.156 228.6C270.23 229.825 268.042 230.438 265.592 230.438ZM265.592 225.492C267.021 225.492 268.261 225.113 269.311 224.355C270.362 223.567 271.179 222.371 271.762 220.766C272.375 219.162 272.681 217.134 272.681 214.683C272.681 212.203 272.375 210.176 271.762 208.6C271.179 206.996 270.362 205.814 269.311 205.055C268.261 204.268 267.021 203.874 265.592 203.874C264.22 203.874 262.995 204.268 261.916 205.055C260.865 205.814 260.034 206.996 259.421 208.6C258.838 210.176 258.546 212.203 258.546 214.683C258.546 217.134 258.838 219.162 259.421 220.766C260.034 222.371 260.865 223.567 261.916 224.355C262.995 225.113 264.22 225.492 265.592 225.492ZM295.037 230.438C292.616 230.438 290.428 229.825 288.473 228.6C286.547 227.374 285.03 225.595 283.922 223.261C282.813 220.897 282.259 218.038 282.259 214.683C282.259 211.328 282.813 208.484 283.922 206.15C285.03 203.786 286.547 201.992 288.473 200.767C290.428 199.541 292.616 198.929 295.037 198.929C297.488 198.929 299.676 199.541 301.602 200.767C303.527 201.992 305.044 203.786 306.153 206.15C307.291 208.484 307.86 211.328 307.86 214.683C307.86 218.038 307.291 220.897 306.153 223.261C305.044 225.595 303.527 227.374 301.602 228.6C299.676 229.825 297.488 230.438 295.037 230.438ZM295.037 225.492C296.467 225.492 297.707 225.113 298.757 224.355C299.807 223.567 300.624 222.371 301.208 220.766C301.82 219.162 302.127 217.134 302.127 214.683C302.127 212.203 301.82 210.176 301.208 208.6C300.624 206.996 299.807 205.814 298.757 205.055C297.707 204.268 296.467 203.874 295.037 203.874C293.666 203.874 292.441 204.268 291.361 205.055C290.311 205.814 289.479 206.996 288.867 208.6C288.283 210.176 287.991 212.203 287.991 214.683C287.991 217.134 288.283 219.162 288.867 220.766C289.479 222.371 290.311 223.567 291.361 224.355C292.441 225.113 293.666 225.492 295.037 225.492Z" fill="white"/>
<path d="M60.6989 258.136C59.1386 258.136 57.9119 257.689 57.0187 256.796C56.1255 255.903 55.679 254.597 55.679 252.878V246.129H57.3749V252.81C57.3749 254.133 57.6632 255.1 58.2398 255.711C58.8277 256.321 59.6531 256.626 60.7158 256.626C61.7899 256.626 62.6153 256.321 63.1919 255.711C63.7798 255.1 64.0737 254.133 64.0737 252.81V246.129H65.7188V252.878C65.7188 254.597 65.2722 255.903 64.379 256.796C63.4971 257.689 62.2704 258.136 60.6989 258.136ZM71.536 258.102C70.7898 258.102 70.0775 258 69.3992 257.796C68.7321 257.593 68.2064 257.344 67.822 257.05L68.5003 255.761C68.8848 256.021 69.3596 256.242 69.9249 256.423C70.4902 256.604 71.0668 256.694 71.6548 256.694C72.4123 256.694 72.955 256.587 73.2828 256.372C73.622 256.157 73.7916 255.857 73.7916 255.473C73.7916 255.19 73.6899 254.97 73.4863 254.812C73.2828 254.653 73.0115 254.535 72.6723 254.456C72.3444 254.376 71.977 254.309 71.57 254.252C71.1629 254.184 70.7559 254.105 70.3489 254.015C69.9419 253.913 69.5688 253.777 69.2296 253.608C68.8904 253.427 68.6191 253.184 68.4156 252.878C68.212 252.562 68.1103 252.143 68.1103 251.623C68.1103 251.081 68.2629 250.606 68.5682 250.199C68.8734 249.792 69.3031 249.481 69.8571 249.266C70.4224 249.04 71.0894 248.927 71.8583 248.927C72.4462 248.927 73.0397 249 73.639 249.147C74.2495 249.283 74.747 249.481 75.1314 249.741L74.4361 251.03C74.029 250.758 73.6051 250.572 73.1641 250.47C72.7232 250.368 72.2822 250.318 71.8413 250.318C71.129 250.318 70.5976 250.436 70.2471 250.674C69.8967 250.9 69.7214 251.194 69.7214 251.556C69.7214 251.861 69.8232 252.098 70.0267 252.268C70.2415 252.426 70.5128 252.55 70.8407 252.641C71.1799 252.731 71.553 252.81 71.96 252.878C72.367 252.935 72.7741 253.014 73.1811 253.116C73.5881 253.206 73.9555 253.336 74.2834 253.506C74.6226 253.675 74.894 253.913 75.0975 254.218C75.3123 254.523 75.4197 254.93 75.4197 255.439C75.4197 255.982 75.2614 256.451 74.9448 256.847C74.6283 257.242 74.1817 257.553 73.6051 257.78C73.0284 257.994 72.3388 258.102 71.536 258.102ZM81.4567 258.102C80.4957 258.102 79.6478 257.904 78.9129 257.508C78.1893 257.112 77.624 256.57 77.217 255.88C76.8212 255.19 76.6234 254.399 76.6234 253.506C76.6234 252.613 76.8156 251.821 77.2 251.132C77.5957 250.442 78.1328 249.905 78.8111 249.52C79.5008 249.125 80.2753 248.927 81.1345 248.927C82.0051 248.927 82.7739 249.119 83.441 249.503C84.108 249.888 84.6281 250.431 85.0012 251.132C85.3856 251.821 85.5778 252.63 85.5778 253.557C85.5778 253.625 85.5722 253.704 85.5609 253.794C85.5609 253.885 85.5552 253.969 85.5439 254.049H77.8953V252.878H84.6959L84.0345 253.285C84.0458 252.709 83.9271 252.194 83.6784 251.742C83.4297 251.29 83.0848 250.939 82.6439 250.691C82.2143 250.431 81.7111 250.301 81.1345 250.301C80.5692 250.301 80.0661 250.431 79.6252 250.691C79.1842 250.939 78.8394 251.295 78.5906 251.759C78.3419 252.211 78.2175 252.731 78.2175 253.319V253.591C78.2175 254.19 78.3532 254.727 78.6246 255.202C78.9072 255.665 79.2973 256.027 79.7948 256.287C80.2922 256.547 80.8632 256.677 81.5076 256.677C82.039 256.677 82.5195 256.587 82.9492 256.406C83.3901 256.225 83.7745 255.954 84.1024 255.592L85.0012 256.643C84.5942 257.118 84.0854 257.48 83.4749 257.729C82.8757 257.977 82.203 258.102 81.4567 258.102ZM87.8386 258V249.012H89.3988V251.454L89.2462 250.843C89.4949 250.221 89.9132 249.747 90.5011 249.419C91.0891 249.091 91.8127 248.927 92.6719 248.927V250.504C92.6041 250.493 92.5362 250.487 92.4684 250.487C92.4119 250.487 92.3554 250.487 92.2988 250.487C91.4282 250.487 90.7386 250.747 90.2298 251.267C89.721 251.787 89.4666 252.539 89.4666 253.523V258H87.8386ZM97.3557 258.102C96.6095 258.102 95.8972 258 95.2188 257.796C94.5518 257.593 94.026 257.344 93.6416 257.05L94.32 255.761C94.7044 256.021 95.1793 256.242 95.7446 256.423C96.3099 256.604 96.8865 256.694 97.4744 256.694C98.2319 256.694 98.7746 256.587 99.1025 256.372C99.4417 256.157 99.6113 255.857 99.6113 255.473C99.6113 255.19 99.5095 254.97 99.306 254.812C99.1025 254.653 98.8311 254.535 98.492 254.456C98.1641 254.376 97.7966 254.309 97.3896 254.252C96.9826 254.184 96.5756 254.105 96.1686 254.015C95.7615 253.913 95.3884 253.777 95.0492 253.608C94.7101 253.427 94.4387 253.184 94.2352 252.878C94.0317 252.562 93.9299 252.143 93.9299 251.623C93.9299 251.081 94.0826 250.606 94.3878 250.199C94.6931 249.792 95.1227 249.481 95.6767 249.266C96.242 249.04 96.9091 248.927 97.6779 248.927C98.2658 248.927 98.8594 249 99.4586 249.147C100.069 249.283 100.567 249.481 100.951 249.741L100.256 251.03C99.8487 250.758 99.4247 250.572 98.9838 250.47C98.5428 250.368 98.1019 250.318 97.661 250.318C96.9487 250.318 96.4173 250.436 96.0668 250.674C95.7163 250.9 95.5411 251.194 95.5411 251.556C95.5411 251.861 95.6428 252.098 95.8463 252.268C96.0611 252.426 96.3325 252.55 96.6604 252.641C96.9996 252.731 97.3727 252.81 97.7797 252.878C98.1867 252.935 98.5937 253.014 99.0007 253.116C99.4078 253.206 99.7752 253.336 100.103 253.506C100.442 253.675 100.714 253.913 100.917 254.218C101.132 254.523 101.239 254.93 101.239 255.439C101.239 255.982 101.081 256.451 100.764 256.847C100.448 257.242 100.001 257.553 99.4247 257.78C98.8481 257.994 98.1584 258.102 97.3557 258.102Z" fill="white"/>
<path d="M356 322L356 154" stroke="url(#paint1_radial_268_61)" stroke-width="108"/>
<path d="M356.192 245.5C354.422 239.932 352.629 237.867 347 236.308C352.991 234.548 354.492 232.474 356.192 227.115C358.094 232.836 360.191 234.721 365.385 236.308C360.308 237.29 358.329 239.402 356.192 245.5Z" fill="#D9D9D9"/>
<path d="M837 322L837 154" stroke="url(#paint2_radial_268_61)" stroke-width="108"/>
<path d="M837.192 245.5C835.422 239.932 833.629 237.867 828 236.308C833.991 234.548 835.492 232.474 837.192 227.115C839.094 232.836 841.191 234.721 846.385 236.308C841.308 237.29 839.329 239.402 837.192 245.5Z" fill="#D9D9D9"/>
<path d="M447.827 235V206.555L450.321 209.136H441.35V204.366H453.516V235H447.827ZM472.371 235.438C469.95 235.438 467.762 234.825 465.807 233.6C463.882 232.374 462.364 230.595 461.256 228.261C460.147 225.897 459.593 223.038 459.593 219.683C459.593 216.328 460.147 213.484 461.256 211.15C462.364 208.786 463.882 206.992 465.807 205.767C467.762 204.541 469.95 203.929 472.371 203.929C474.822 203.929 477.01 204.541 478.936 205.767C480.861 206.992 482.378 208.786 483.487 211.15C484.625 213.484 485.194 216.328 485.194 219.683C485.194 223.038 484.625 225.897 483.487 228.261C482.378 230.595 480.861 232.374 478.936 233.6C477.01 234.825 474.822 235.438 472.371 235.438ZM472.371 230.492C473.801 230.492 475.041 230.113 476.091 229.355C477.141 228.567 477.958 227.371 478.542 225.766C479.155 224.162 479.461 222.134 479.461 219.683C479.461 217.203 479.155 215.176 478.542 213.6C477.958 211.996 477.141 210.814 476.091 210.055C475.041 209.268 473.801 208.874 472.371 208.874C471 208.874 469.775 209.268 468.695 210.055C467.645 210.814 466.814 211.996 466.201 213.6C465.617 215.176 465.326 217.203 465.326 219.683C465.326 222.134 465.617 224.162 466.201 225.766C466.814 227.371 467.645 228.567 468.695 229.355C469.775 230.113 471 230.492 472.371 230.492ZM501.817 235.438C499.395 235.438 497.207 234.825 495.253 233.6C493.327 232.374 491.81 230.595 490.701 228.261C489.593 225.897 489.038 223.038 489.038 219.683C489.038 216.328 489.593 213.484 490.701 211.15C491.81 208.786 493.327 206.992 495.253 205.767C497.207 204.541 499.395 203.929 501.817 203.929C504.268 203.929 506.456 204.541 508.381 205.767C510.307 206.992 511.824 208.786 512.933 211.15C514.07 213.484 514.639 216.328 514.639 219.683C514.639 223.038 514.07 225.897 512.933 228.261C511.824 230.595 510.307 232.374 508.381 233.6C506.456 234.825 504.268 235.438 501.817 235.438ZM501.817 230.492C503.246 230.492 504.486 230.113 505.537 229.355C506.587 228.567 507.404 227.371 507.987 225.766C508.6 224.162 508.906 222.134 508.906 219.683C508.906 217.203 508.6 215.176 507.987 213.6C507.404 211.996 506.587 210.814 505.537 210.055C504.486 209.268 503.246 208.874 501.817 208.874C500.446 208.874 499.22 209.268 498.141 210.055C497.091 210.814 496.259 211.996 495.646 213.6C495.063 215.176 494.771 217.203 494.771 219.683C494.771 222.134 495.063 224.162 495.646 225.766C496.259 227.371 497.091 228.567 498.141 229.355C499.22 230.113 500.446 230.492 501.817 230.492ZM543.357 235.438C540.935 235.438 538.747 234.825 536.793 233.6C534.867 232.374 533.35 230.595 532.241 228.261C531.133 225.897 530.578 223.038 530.578 219.683C530.578 216.328 531.133 213.484 532.241 211.15C533.35 208.786 534.867 206.992 536.793 205.767C538.747 204.541 540.935 203.929 543.357 203.929C545.808 203.929 547.996 204.541 549.921 205.767C551.847 206.992 553.364 208.786 554.473 211.15C555.61 213.484 556.179 216.328 556.179 219.683C556.179 223.038 555.61 225.897 554.473 228.261C553.364 230.595 551.847 232.374 549.921 233.6C547.996 234.825 545.808 235.438 543.357 235.438ZM543.357 230.492C544.786 230.492 546.026 230.113 547.077 229.355C548.127 228.567 548.944 227.371 549.527 225.766C550.14 224.162 550.446 222.134 550.446 219.683C550.446 217.203 550.14 215.176 549.527 213.6C548.944 211.996 548.127 210.814 547.077 210.055C546.026 209.268 544.786 208.874 543.357 208.874C541.986 208.874 540.76 209.268 539.681 210.055C538.631 210.814 537.799 211.996 537.186 213.6C536.603 215.176 536.311 217.203 536.311 219.683C536.311 222.134 536.603 224.162 537.186 225.766C537.799 227.371 538.631 228.567 539.681 229.355C540.76 230.113 541.986 230.492 543.357 230.492ZM572.802 235.438C570.381 235.438 568.193 234.825 566.238 233.6C564.313 232.374 562.795 230.595 561.687 228.261C560.578 225.897 560.024 223.038 560.024 219.683C560.024 216.328 560.578 213.484 561.687 211.15C562.795 208.786 564.313 206.992 566.238 205.767C568.193 204.541 570.381 203.929 572.802 203.929C575.253 203.929 577.441 204.541 579.367 205.767C581.292 206.992 582.809 208.786 583.918 211.15C585.056 213.484 585.625 216.328 585.625 219.683C585.625 223.038 585.056 225.897 583.918 228.261C582.809 230.595 581.292 232.374 579.367 233.6C577.441 234.825 575.253 235.438 572.802 235.438ZM572.802 230.492C574.232 230.492 575.472 230.113 576.522 229.355C577.573 228.567 578.389 227.371 578.973 225.766C579.586 224.162 579.892 222.134 579.892 219.683C579.892 217.203 579.586 215.176 578.973 213.6C578.389 211.996 577.573 210.814 576.522 210.055C575.472 209.268 574.232 208.874 572.802 208.874C571.431 208.874 570.206 209.268 569.126 210.055C568.076 210.814 567.245 211.996 566.632 213.6C566.048 215.176 565.757 217.203 565.757 219.683C565.757 222.134 566.048 224.162 566.632 225.766C567.245 227.371 568.076 228.567 569.126 229.355C570.206 230.113 571.431 230.492 572.802 230.492ZM602.248 235.438C599.826 235.438 597.638 234.825 595.684 233.6C593.758 232.374 592.241 230.595 591.132 228.261C590.024 225.897 589.469 223.038 589.469 219.683C589.469 216.328 590.024 213.484 591.132 211.15C592.241 208.786 593.758 206.992 595.684 205.767C597.638 204.541 599.826 203.929 602.248 203.929C604.699 203.929 606.887 204.541 608.812 205.767C610.738 206.992 612.255 208.786 613.364 211.15C614.501 213.484 615.07 216.328 615.07 219.683C615.07 223.038 614.501 225.897 613.364 228.261C612.255 230.595 610.738 232.374 608.812 233.6C606.887 234.825 604.699 235.438 602.248 235.438ZM602.248 230.492C603.678 230.492 604.917 230.113 605.968 229.355C607.018 228.567 607.835 227.371 608.418 225.766C609.031 224.162 609.337 222.134 609.337 219.683C609.337 217.203 609.031 215.176 608.418 213.6C607.835 211.996 607.018 210.814 605.968 210.055C604.917 209.268 603.678 208.874 602.248 208.874C600.877 208.874 599.651 209.268 598.572 210.055C597.522 210.814 596.69 211.996 596.077 213.6C595.494 215.176 595.202 217.203 595.202 219.683C595.202 222.134 595.494 224.162 596.077 225.766C596.69 227.371 597.522 228.567 598.572 229.355C599.651 230.113 600.877 230.492 602.248 230.492ZM627.793 229.53V209.837H632.476V229.53H627.793ZM620.048 221.871V217.495H640.222V221.871H620.048Z" fill="white"/>
<path d="M447.699 263.136C446.139 263.136 444.912 262.689 444.019 261.796C443.126 260.903 442.679 259.597 442.679 257.878V251.129H444.375V257.81C444.375 259.133 444.663 260.1 445.24 260.711C445.828 261.321 446.653 261.626 447.716 261.626C448.79 261.626 449.615 261.321 450.192 260.711C450.78 260.1 451.074 259.133 451.074 257.81V251.129H452.719V257.878C452.719 259.597 452.272 260.903 451.379 261.796C450.497 262.689 449.27 263.136 447.699 263.136ZM458.536 263.102C457.79 263.102 457.078 263 456.399 262.796C455.732 262.593 455.206 262.344 454.822 262.05L455.5 260.761C455.885 261.021 456.36 261.242 456.925 261.423C457.49 261.604 458.067 261.694 458.655 261.694C459.412 261.694 459.955 261.587 460.283 261.372C460.622 261.157 460.792 260.857 460.792 260.473C460.792 260.19 460.69 259.97 460.486 259.812C460.283 259.653 460.011 259.535 459.672 259.456C459.344 259.376 458.977 259.309 458.57 259.252C458.163 259.184 457.756 259.105 457.349 259.015C456.942 258.913 456.569 258.777 456.23 258.608C455.89 258.427 455.619 258.184 455.416 257.878C455.212 257.562 455.11 257.143 455.11 256.623C455.11 256.081 455.263 255.606 455.568 255.199C455.873 254.792 456.303 254.481 456.857 254.266C457.422 254.04 458.089 253.927 458.858 253.927C459.446 253.927 460.04 254 460.639 254.147C461.25 254.283 461.747 254.481 462.131 254.741L461.436 256.03C461.029 255.758 460.605 255.572 460.164 255.47C459.723 255.368 459.282 255.318 458.841 255.318C458.129 255.318 457.598 255.436 457.247 255.674C456.897 255.9 456.721 256.194 456.721 256.556C456.721 256.861 456.823 257.098 457.027 257.268C457.241 257.426 457.513 257.55 457.841 257.641C458.18 257.731 458.553 257.81 458.96 257.878C459.367 257.935 459.774 258.014 460.181 258.116C460.588 258.206 460.956 258.336 461.283 258.506C461.623 258.675 461.894 258.913 462.097 259.218C462.312 259.523 462.42 259.93 462.42 260.439C462.42 260.982 462.261 261.451 461.945 261.847C461.628 262.242 461.182 262.553 460.605 262.78C460.028 262.994 459.339 263.102 458.536 263.102ZM468.457 263.102C467.496 263.102 466.648 262.904 465.913 262.508C465.189 262.112 464.624 261.57 464.217 260.88C463.821 260.19 463.623 259.399 463.623 258.506C463.623 257.613 463.816 256.821 464.2 256.132C464.596 255.442 465.133 254.905 465.811 254.52C466.501 254.125 467.275 253.927 468.135 253.927C469.005 253.927 469.774 254.119 470.441 254.503C471.108 254.888 471.628 255.431 472.001 256.132C472.386 256.821 472.578 257.63 472.578 258.557C472.578 258.625 472.572 258.704 472.561 258.794C472.561 258.885 472.555 258.969 472.544 259.049H464.895V257.878H471.696L471.035 258.285C471.046 257.709 470.927 257.194 470.678 256.742C470.43 256.29 470.085 255.939 469.644 255.691C469.214 255.431 468.711 255.301 468.135 255.301C467.569 255.301 467.066 255.431 466.625 255.691C466.184 255.939 465.839 256.295 465.591 256.759C465.342 257.211 465.218 257.731 465.218 258.319V258.591C465.218 259.19 465.353 259.727 465.625 260.202C465.907 260.665 466.297 261.027 466.795 261.287C467.292 261.547 467.863 261.677 468.508 261.677C469.039 261.677 469.52 261.587 469.949 261.406C470.39 261.225 470.774 260.954 471.102 260.592L472.001 261.643C471.594 262.118 471.085 262.48 470.475 262.729C469.876 262.977 469.203 263.102 468.457 263.102ZM474.839 263V254.012H476.399V256.454L476.246 255.843C476.495 255.221 476.913 254.747 477.501 254.419C478.089 254.091 478.813 253.927 479.672 253.927V255.504C479.604 255.493 479.536 255.487 479.468 255.487C479.412 255.487 479.355 255.487 479.299 255.487C478.428 255.487 477.739 255.747 477.23 256.267C476.721 256.787 476.467 257.539 476.467 258.523V263H474.839ZM484.356 263.102C483.609 263.102 482.897 263 482.219 262.796C481.552 262.593 481.026 262.344 480.642 262.05L481.32 260.761C481.704 261.021 482.179 261.242 482.745 261.423C483.31 261.604 483.886 261.694 484.474 261.694C485.232 261.694 485.775 261.587 486.102 261.372C486.442 261.157 486.611 260.857 486.611 260.473C486.611 260.19 486.51 259.97 486.306 259.812C486.102 259.653 485.831 259.535 485.492 259.456C485.164 259.376 484.797 259.309 484.39 259.252C483.983 259.184 483.576 259.105 483.169 259.015C482.762 258.913 482.388 258.777 482.049 258.608C481.71 258.427 481.439 258.184 481.235 257.878C481.032 257.562 480.93 257.143 480.93 256.623C480.93 256.081 481.083 255.606 481.388 255.199C481.693 254.792 482.123 254.481 482.677 254.266C483.242 254.04 483.909 253.927 484.678 253.927C485.266 253.927 485.859 254 486.459 254.147C487.069 254.283 487.567 254.481 487.951 254.741L487.256 256.03C486.849 255.758 486.425 255.572 485.984 255.47C485.543 255.368 485.102 255.318 484.661 255.318C483.949 255.318 483.417 255.436 483.067 255.674C482.716 255.9 482.541 256.194 482.541 256.556C482.541 256.861 482.643 257.098 482.846 257.268C483.061 257.426 483.332 257.55 483.66 257.641C484 257.731 484.373 257.81 484.78 257.878C485.187 257.935 485.594 258.014 486.001 258.116C486.408 258.206 486.775 258.336 487.103 258.506C487.442 258.675 487.714 258.913 487.917 259.218C488.132 259.523 488.239 259.93 488.239 260.439C488.239 260.982 488.081 261.451 487.764 261.847C487.448 262.242 487.001 262.553 486.425 262.78C485.848 262.994 485.158 263.102 484.356 263.102Z" fill="white"/>
<path d="M895.253 240.251V199.115H898.842V240.251H895.253ZM896.61 235.438C894.218 235.438 891.928 235.102 889.739 234.431C887.551 233.731 885.815 232.841 884.532 231.762L886.501 227.342C887.726 228.304 889.243 229.107 891.052 229.749C892.861 230.39 894.714 230.711 896.61 230.711C898.215 230.711 899.513 230.536 900.505 230.186C901.497 229.836 902.226 229.369 902.693 228.786C903.16 228.173 903.393 227.487 903.393 226.729C903.393 225.795 903.058 225.051 902.387 224.497C901.716 223.914 900.84 223.461 899.761 223.14C898.711 222.79 897.529 222.469 896.216 222.178C894.933 221.886 893.634 221.55 892.321 221.171C891.038 220.763 889.856 220.252 888.777 219.639C887.726 218.998 886.866 218.152 886.195 217.101C885.524 216.051 885.188 214.709 885.188 213.075C885.188 211.412 885.626 209.895 886.501 208.524C887.405 207.123 888.762 206.015 890.571 205.198C892.409 204.352 894.728 203.929 897.529 203.929C899.367 203.929 901.191 204.162 902.999 204.629C904.808 205.096 906.384 205.767 907.726 206.642L905.931 211.062C904.56 210.245 903.145 209.647 901.686 209.268C900.228 208.859 898.827 208.655 897.485 208.655C895.91 208.655 894.626 208.845 893.634 209.224C892.671 209.603 891.957 210.099 891.49 210.712C891.052 211.325 890.833 212.025 890.833 212.813C890.833 213.746 891.154 214.505 891.796 215.088C892.467 215.642 893.328 216.08 894.378 216.401C895.458 216.722 896.654 217.043 897.967 217.364C899.28 217.656 900.578 217.991 901.862 218.37C903.174 218.75 904.356 219.246 905.406 219.858C906.486 220.471 907.346 221.302 907.988 222.353C908.659 223.403 908.995 224.73 908.995 226.335C908.995 227.969 908.543 229.486 907.638 230.886C906.763 232.258 905.406 233.366 903.568 234.212C901.73 235.029 899.411 235.438 896.61 235.438ZM929.444 235V206.555L931.938 209.136H922.967V204.366H935.133V235H929.444ZM966.083 235.438C963.661 235.438 961.473 234.825 959.518 233.6C957.593 232.374 956.076 230.595 954.967 228.261C953.858 225.897 953.304 223.038 953.304 219.683C953.304 216.328 953.858 213.484 954.967 211.15C956.076 208.786 957.593 206.992 959.518 205.767C961.473 204.541 963.661 203.929 966.083 203.929C968.533 203.929 970.721 204.541 972.647 205.767C974.573 206.992 976.09 208.786 977.198 211.15C978.336 213.484 978.905 216.328 978.905 219.683C978.905 223.038 978.336 225.897 977.198 228.261C976.09 230.595 974.573 232.374 972.647 233.6C970.721 234.825 968.533 235.438 966.083 235.438ZM966.083 230.492C967.512 230.492 968.752 230.113 969.802 229.355C970.853 228.567 971.67 227.371 972.253 225.766C972.866 224.162 973.172 222.134 973.172 219.683C973.172 217.203 972.866 215.176 972.253 213.6C971.67 211.996 970.853 210.814 969.802 210.055C968.752 209.268 967.512 208.874 966.083 208.874C964.711 208.874 963.486 209.268 962.407 210.055C961.356 210.814 960.525 211.996 959.912 213.6C959.329 215.176 959.037 217.203 959.037 219.683C959.037 222.134 959.329 224.162 959.912 225.766C960.525 227.371 961.356 228.567 962.407 229.355C963.486 230.113 964.711 230.492 966.083 230.492ZM995.528 235.438C993.107 235.438 990.919 234.825 988.964 233.6C987.038 232.374 985.521 230.595 984.413 228.261C983.304 225.897 982.75 223.038 982.75 219.683C982.75 216.328 983.304 213.484 984.413 211.15C985.521 208.786 987.038 206.992 988.964 205.767C990.919 204.541 993.107 203.929 995.528 203.929C997.979 203.929 1000.17 204.541 1002.09 205.767C1004.02 206.992 1005.54 208.786 1006.64 211.15C1007.78 213.484 1008.35 216.328 1008.35 219.683C1008.35 223.038 1007.78 225.897 1006.64 228.261C1005.54 230.595 1004.02 232.374 1002.09 233.6C1000.17 234.825 997.979 235.438 995.528 235.438ZM995.528 230.492C996.958 230.492 998.198 230.113 999.248 229.355C1000.3 228.567 1001.12 227.371 1001.7 225.766C1002.31 224.162 1002.62 222.134 1002.62 219.683C1002.62 217.203 1002.31 215.176 1001.7 213.6C1001.12 211.996 1000.3 210.814 999.248 210.055C998.198 209.268 996.958 208.874 995.528 208.874C994.157 208.874 992.932 209.268 991.852 210.055C990.802 210.814 989.97 211.996 989.358 213.6C988.774 215.176 988.482 217.203 988.482 219.683C988.482 222.134 988.774 224.162 989.358 225.766C989.97 227.371 990.802 228.567 991.852 229.355C992.932 230.113 994.157 230.492 995.528 230.492ZM1024.97 235.438C1022.55 235.438 1020.36 234.825 1018.41 233.6C1016.48 232.374 1014.97 230.595 1013.86 228.261C1012.75 225.897 1012.2 223.038 1012.2 219.683C1012.2 216.328 1012.75 213.484 1013.86 211.15C1014.97 208.786 1016.48 206.992 1018.41 205.767C1020.36 204.541 1022.55 203.929 1024.97 203.929C1027.42 203.929 1029.61 204.541 1031.54 205.767C1033.46 206.992 1034.98 208.786 1036.09 211.15C1037.23 213.484 1037.8 216.328 1037.8 219.683C1037.8 223.038 1037.23 225.897 1036.09 228.261C1034.98 230.595 1033.46 232.374 1031.54 233.6C1029.61 234.825 1027.42 235.438 1024.97 235.438ZM1024.97 230.492C1026.4 230.492 1027.64 230.113 1028.69 229.355C1029.74 228.567 1030.56 227.371 1031.14 225.766C1031.76 224.162 1032.06 222.134 1032.06 219.683C1032.06 217.203 1031.76 215.176 1031.14 213.6C1030.56 211.996 1029.74 210.814 1028.69 210.055C1027.64 209.268 1026.4 208.874 1024.97 208.874C1023.6 208.874 1022.38 209.268 1021.3 210.055C1020.25 210.814 1019.42 211.996 1018.8 213.6C1018.22 215.176 1017.93 217.203 1017.93 219.683C1017.93 222.134 1018.22 224.162 1018.8 225.766C1019.42 227.371 1020.25 228.567 1021.3 229.355C1022.38 230.113 1023.6 230.492 1024.97 230.492ZM1066.51 235.438C1064.09 235.438 1061.9 234.825 1059.95 233.6C1058.02 232.374 1056.51 230.595 1055.4 228.261C1054.29 225.897 1053.74 223.038 1053.74 219.683C1053.74 216.328 1054.29 213.484 1055.4 211.15C1056.51 208.786 1058.02 206.992 1059.95 205.767C1061.9 204.541 1064.09 203.929 1066.51 203.929C1068.96 203.929 1071.15 204.541 1073.08 205.767C1075 206.992 1076.52 208.786 1077.63 211.15C1078.77 213.484 1079.34 216.328 1079.34 219.683C1079.34 223.038 1078.77 225.897 1077.63 228.261C1076.52 230.595 1075 232.374 1073.08 233.6C1071.15 234.825 1068.96 235.438 1066.51 235.438ZM1066.51 230.492C1067.94 230.492 1069.18 230.113 1070.23 229.355C1071.28 228.567 1072.1 227.371 1072.68 225.766C1073.3 224.162 1073.6 222.134 1073.6 219.683C1073.6 217.203 1073.3 215.176 1072.68 213.6C1072.1 211.996 1071.28 210.814 1070.23 210.055C1069.18 209.268 1067.94 208.874 1066.51 208.874C1065.14 208.874 1063.92 209.268 1062.84 210.055C1061.79 210.814 1060.96 211.996 1060.34 213.6C1059.76 215.176 1059.47 217.203 1059.47 219.683C1059.47 222.134 1059.76 224.162 1060.34 225.766C1060.96 227.371 1061.79 228.567 1062.84 229.355C1063.92 230.113 1065.14 230.492 1066.51 230.492ZM1095.96 235.438C1093.54 235.438 1091.35 234.825 1089.39 233.6C1087.47 232.374 1085.95 230.595 1084.84 228.261C1083.73 225.897 1083.18 223.038 1083.18 219.683C1083.18 216.328 1083.73 213.484 1084.84 211.15C1085.95 208.786 1087.47 206.992 1089.39 205.767C1091.35 204.541 1093.54 203.929 1095.96 203.929C1098.41 203.929 1100.6 204.541 1102.52 205.767C1104.45 206.992 1105.97 208.786 1107.07 211.15C1108.21 213.484 1108.78 216.328 1108.78 219.683C1108.78 223.038 1108.21 225.897 1107.07 228.261C1105.97 230.595 1104.45 232.374 1102.52 233.6C1100.6 234.825 1098.41 235.438 1095.96 235.438ZM1095.96 230.492C1097.39 230.492 1098.63 230.113 1099.68 229.355C1100.73 228.567 1101.55 227.371 1102.13 225.766C1102.74 224.162 1103.05 222.134 1103.05 219.683C1103.05 217.203 1102.74 215.176 1102.13 213.6C1101.55 211.996 1100.73 210.814 1099.68 210.055C1098.63 209.268 1097.39 208.874 1095.96 208.874C1094.59 208.874 1093.36 209.268 1092.28 210.055C1091.23 210.814 1090.4 211.996 1089.79 213.6C1089.21 215.176 1088.91 217.203 1088.91 219.683C1088.91 222.134 1089.21 224.162 1089.79 225.766C1090.4 227.371 1091.23 228.567 1092.28 229.355C1093.36 230.113 1094.59 230.492 1095.96 230.492ZM1125.4 235.438C1122.98 235.438 1120.8 234.825 1118.84 233.6C1116.91 232.374 1115.4 230.595 1114.29 228.261C1113.18 225.897 1112.63 223.038 1112.63 219.683C1112.63 216.328 1113.18 213.484 1114.29 211.15C1115.4 208.786 1116.91 206.992 1118.84 205.767C1120.8 204.541 1122.98 203.929 1125.4 203.929C1127.86 203.929 1130.04 204.541 1131.97 205.767C1133.89 206.992 1135.41 208.786 1136.52 211.15C1137.66 213.484 1138.23 216.328 1138.23 219.683C1138.23 223.038 1137.66 225.897 1136.52 228.261C1135.41 230.595 1133.89 232.374 1131.97 233.6C1130.04 234.825 1127.86 235.438 1125.4 235.438ZM1125.4 230.492C1126.83 230.492 1128.07 230.113 1129.12 229.355C1130.17 228.567 1130.99 227.371 1131.58 225.766C1132.19 224.162 1132.49 222.134 1132.49 219.683C1132.49 217.203 1132.19 215.176 1131.58 213.6C1130.99 211.996 1130.17 210.814 1129.12 210.055C1128.07 209.268 1126.83 208.874 1125.4 208.874C1124.03 208.874 1122.81 209.268 1121.73 210.055C1120.68 210.814 1119.85 211.996 1119.23 213.6C1118.65 215.176 1118.36 217.203 1118.36 219.683C1118.36 222.134 1118.65 224.162 1119.23 225.766C1119.85 227.371 1120.68 228.567 1121.73 229.355C1122.81 230.113 1124.03 230.492 1125.4 230.492Z" fill="white"/>
<path d="M884.543 263V254.012H886.171V263H884.543ZM885.357 252.282C885.041 252.282 884.775 252.18 884.56 251.977C884.357 251.773 884.255 251.524 884.255 251.23C884.255 250.925 884.357 250.671 884.56 250.467C884.775 250.264 885.041 250.162 885.357 250.162C885.674 250.162 885.934 250.264 886.137 250.467C886.352 250.659 886.46 250.902 886.46 251.196C886.46 251.502 886.358 251.762 886.154 251.977C885.951 252.18 885.685 252.282 885.357 252.282ZM891.858 263.102C891.112 263.102 890.399 263 889.721 262.796C889.054 262.593 888.528 262.344 888.144 262.05L888.822 260.761C889.206 261.021 889.681 261.242 890.247 261.423C890.812 261.604 891.389 261.694 891.976 261.694C892.734 261.694 893.277 261.587 893.605 261.372C893.944 261.157 894.113 260.857 894.113 260.473C894.113 260.19 894.012 259.97 893.808 259.812C893.605 259.653 893.333 259.535 892.994 259.456C892.666 259.376 892.299 259.309 891.892 259.252C891.485 259.184 891.078 259.105 890.671 259.015C890.264 258.913 889.89 258.777 889.551 258.608C889.212 258.427 888.941 258.184 888.737 257.878C888.534 257.562 888.432 257.143 888.432 256.623C888.432 256.081 888.585 255.606 888.89 255.199C889.195 254.792 889.625 254.481 890.179 254.266C890.744 254.04 891.411 253.927 892.18 253.927C892.768 253.927 893.361 254 893.961 254.147C894.571 254.283 895.069 254.481 895.453 254.741L894.758 256.03C894.351 255.758 893.927 255.572 893.486 255.47C893.045 255.368 892.604 255.318 892.163 255.318C891.451 255.318 890.919 255.436 890.569 255.674C890.218 255.9 890.043 256.194 890.043 256.556C890.043 256.861 890.145 257.098 890.348 257.268C890.563 257.426 890.835 257.55 891.162 257.641C891.502 257.731 891.875 257.81 892.282 257.878C892.689 257.935 893.096 258.014 893.503 258.116C893.91 258.206 894.277 258.336 894.605 258.506C894.944 258.675 895.216 258.913 895.419 259.218C895.634 259.523 895.741 259.93 895.741 260.439C895.741 260.982 895.583 261.451 895.267 261.847C894.95 262.242 894.503 262.553 893.927 262.78C893.35 262.994 892.66 263.102 891.858 263.102ZM907.096 263.102C906.35 263.102 905.666 262.932 905.044 262.593C904.433 262.242 903.942 261.728 903.569 261.05C903.207 260.371 903.026 259.523 903.026 258.506C903.026 257.488 903.201 256.64 903.552 255.962C903.913 255.284 904.4 254.775 905.01 254.436C905.632 254.096 906.327 253.927 907.096 253.927C907.978 253.927 908.758 254.119 909.436 254.503C910.115 254.888 910.652 255.425 911.048 256.115C911.443 256.793 911.641 257.59 911.641 258.506C911.641 259.422 911.443 260.224 911.048 260.914C910.652 261.604 910.115 262.141 909.436 262.525C908.758 262.91 907.978 263.102 907.096 263.102ZM902.331 266.29V254.012H903.891V256.437L903.789 258.523L903.959 260.609V266.29H902.331ZM906.96 261.677C907.537 261.677 908.051 261.547 908.504 261.287C908.967 261.027 909.329 260.66 909.589 260.185C909.86 259.699 909.996 259.139 909.996 258.506C909.996 257.861 909.86 257.307 909.589 256.844C909.329 256.369 908.967 256.002 908.504 255.741C908.051 255.481 907.537 255.351 906.96 255.351C906.395 255.351 905.881 255.481 905.417 255.741C904.965 256.002 904.603 256.369 904.332 256.844C904.072 257.307 903.942 257.861 903.942 258.506C903.942 259.139 904.072 259.699 904.332 260.185C904.603 260.66 904.965 261.027 905.417 261.287C905.881 261.547 906.395 261.677 906.96 261.677ZM919.387 263V261.101L919.303 260.744V257.505C919.303 256.816 919.099 256.284 918.692 255.911C918.296 255.527 917.697 255.334 916.894 255.334C916.363 255.334 915.843 255.425 915.334 255.606C914.825 255.775 914.396 256.007 914.045 256.301L913.367 255.08C913.83 254.707 914.384 254.424 915.029 254.232C915.685 254.029 916.369 253.927 917.081 253.927C918.313 253.927 919.263 254.226 919.93 254.826C920.597 255.425 920.931 256.341 920.931 257.573V263H919.387ZM916.436 263.102C915.769 263.102 915.181 262.989 914.673 262.763C914.175 262.536 913.791 262.226 913.519 261.83C913.248 261.423 913.112 260.965 913.112 260.456C913.112 259.97 913.226 259.529 913.452 259.133C913.689 258.738 914.068 258.421 914.588 258.184C915.119 257.946 915.832 257.827 916.725 257.827H919.574V258.998H916.793C915.979 258.998 915.43 259.133 915.148 259.405C914.865 259.676 914.724 260.004 914.724 260.388C914.724 260.829 914.899 261.185 915.249 261.457C915.6 261.717 916.086 261.847 916.708 261.847C917.318 261.847 917.85 261.711 918.302 261.44C918.765 261.168 919.099 260.773 919.303 260.253L919.625 261.372C919.41 261.903 919.031 262.327 918.489 262.644C917.946 262.949 917.262 263.102 916.436 263.102ZM923.944 263V254.012H925.572V263H923.944ZM924.758 252.282C924.441 252.282 924.175 252.18 923.96 251.977C923.757 251.773 923.655 251.524 923.655 251.23C923.655 250.925 923.757 250.671 923.96 250.467C924.175 250.264 924.441 250.162 924.758 250.162C925.074 250.162 925.334 250.264 925.538 250.467C925.752 250.659 925.86 250.902 925.86 251.196C925.86 251.502 925.758 251.762 925.555 251.977C925.351 252.18 925.085 252.282 924.758 252.282ZM932.394 263.102C931.524 263.102 930.744 262.91 930.054 262.525C929.375 262.141 928.838 261.604 928.443 260.914C928.047 260.224 927.849 259.422 927.849 258.506C927.849 257.59 928.047 256.793 928.443 256.115C928.838 255.425 929.375 254.888 930.054 254.503C930.744 254.119 931.524 253.927 932.394 253.927C933.152 253.927 933.836 254.096 934.446 254.436C935.057 254.775 935.543 255.284 935.905 255.962C936.278 256.64 936.464 257.488 936.464 258.506C936.464 259.523 936.284 260.371 935.922 261.05C935.571 261.728 935.091 262.242 934.48 262.593C933.87 262.932 933.174 263.102 932.394 263.102ZM932.53 261.677C933.095 261.677 933.604 261.547 934.056 261.287C934.52 261.027 934.882 260.66 935.142 260.185C935.413 259.699 935.549 259.139 935.549 258.506C935.549 257.861 935.413 257.307 935.142 256.844C934.882 256.369 934.52 256.002 934.056 255.741C933.604 255.481 933.095 255.351 932.53 255.351C931.953 255.351 931.439 255.481 930.987 255.741C930.534 256.002 930.173 256.369 929.901 256.844C929.63 257.307 929.494 257.861 929.494 258.506C929.494 259.139 929.63 259.699 929.901 260.185C930.173 260.66 930.534 261.027 930.987 261.287C931.439 261.547 931.953 261.677 932.53 261.677ZM935.599 263V260.575L935.701 258.489L935.532 256.403V250.416H937.16V263H935.599ZM948.644 263.102C947.74 263.102 946.937 262.904 946.236 262.508C945.535 262.112 944.981 261.57 944.574 260.88C944.167 260.179 943.964 259.388 943.964 258.506C943.964 257.613 944.167 256.821 944.574 256.132C944.981 255.442 945.535 254.905 946.236 254.52C946.937 254.125 947.74 253.927 948.644 253.927C949.538 253.927 950.335 254.125 951.036 254.52C951.748 254.905 952.302 255.442 952.698 256.132C953.105 256.81 953.308 257.601 953.308 258.506C953.308 259.399 953.105 260.19 952.698 260.88C952.302 261.57 951.748 262.112 951.036 262.508C950.335 262.904 949.538 263.102 948.644 263.102ZM948.644 261.677C949.221 261.677 949.735 261.547 950.188 261.287C950.651 261.027 951.013 260.66 951.273 260.185C951.533 259.699 951.663 259.139 951.663 258.506C951.663 257.861 951.533 257.307 951.273 256.844C951.013 256.369 950.651 256.002 950.188 255.741C949.735 255.481 949.221 255.351 948.644 255.351C948.068 255.351 947.553 255.481 947.101 255.741C946.649 256.002 946.287 256.369 946.016 256.844C945.744 257.307 945.609 257.861 945.609 258.506C945.609 259.139 945.744 259.699 946.016 260.185C946.287 260.66 946.649 261.027 947.101 261.287C947.553 261.547 948.068 261.677 948.644 261.677ZM959.342 263.102C958.573 263.102 957.894 262.96 957.307 262.678C956.73 262.395 956.278 261.965 955.95 261.389C955.633 260.801 955.475 260.066 955.475 259.184V254.012H957.103V258.998C957.103 259.88 957.312 260.541 957.731 260.982C958.16 261.423 958.759 261.643 959.528 261.643C960.094 261.643 960.585 261.53 961.004 261.304C961.422 261.067 961.744 260.727 961.97 260.287C962.196 259.834 962.31 259.292 962.31 258.658V254.012H963.938V263H962.394V260.575L962.649 261.219C962.355 261.819 961.914 262.282 961.326 262.61C960.738 262.938 960.077 263.102 959.342 263.102ZM970.124 263.102C969.219 263.102 968.518 262.859 968.021 262.373C967.523 261.886 967.274 261.191 967.274 260.287V252.044H968.903V260.219C968.903 260.705 969.021 261.078 969.259 261.338C969.507 261.598 969.858 261.728 970.31 261.728C970.819 261.728 971.243 261.587 971.582 261.304L972.091 262.474C971.842 262.689 971.542 262.847 971.192 262.949C970.853 263.051 970.497 263.102 970.124 263.102ZM965.748 255.351V254.012H971.48V255.351H965.748ZM981.7 263.102C980.796 263.102 980.095 262.859 979.597 262.373C979.1 261.886 978.851 261.191 978.851 260.287V252.044H980.479V260.219C980.479 260.705 980.598 261.078 980.835 261.338C981.084 261.598 981.435 261.728 981.887 261.728C982.396 261.728 982.819 261.587 983.159 261.304L983.667 262.474C983.419 262.689 983.119 262.847 982.769 262.949C982.429 263.051 982.073 263.102 981.7 263.102ZM977.325 255.351V254.012H983.057V255.351H977.325ZM989.187 263.102C988.283 263.102 987.48 262.904 986.779 262.508C986.078 262.112 985.524 261.57 985.117 260.88C984.71 260.179 984.507 259.388 984.507 258.506C984.507 257.613 984.71 256.821 985.117 256.132C985.524 255.442 986.078 254.905 986.779 254.52C987.48 254.125 988.283 253.927 989.187 253.927C990.081 253.927 990.878 254.125 991.579 254.52C992.291 254.905 992.845 255.442 993.241 256.132C993.648 256.81 993.851 257.601 993.851 258.506C993.851 259.399 993.648 260.19 993.241 260.88C992.845 261.57 992.291 262.112 991.579 262.508C990.878 262.904 990.081 263.102 989.187 263.102ZM989.187 261.677C989.764 261.677 990.278 261.547 990.731 261.287C991.194 261.027 991.556 260.66 991.816 260.185C992.076 259.699 992.206 259.139 992.206 258.506C992.206 257.861 992.076 257.307 991.816 256.844C991.556 256.369 991.194 256.002 990.731 255.741C990.278 255.481 989.764 255.351 989.187 255.351C988.611 255.351 988.096 255.481 987.644 255.741C987.192 256.002 986.83 256.369 986.559 256.844C986.287 257.307 986.152 257.861 986.152 258.506C986.152 259.139 986.287 259.699 986.559 260.185C986.83 260.66 987.192 261.027 987.644 261.287C988.096 261.547 988.611 261.677 989.187 261.677ZM1006.24 263V261.101L1006.15 260.744V257.505C1006.15 256.816 1005.95 256.284 1005.54 255.911C1005.15 255.527 1004.55 255.334 1003.74 255.334C1003.21 255.334 1002.69 255.425 1002.18 255.606C1001.67 255.775 1001.25 256.007 1000.89 256.301L1000.22 255.08C1000.68 254.707 1001.23 254.424 1001.88 254.232C1002.53 254.029 1003.22 253.927 1003.93 253.927C1005.16 253.927 1006.11 254.226 1006.78 254.826C1007.45 255.425 1007.78 256.341 1007.78 257.573V263H1006.24ZM1003.29 263.102C1002.62 263.102 1002.03 262.989 1001.52 262.763C1001.02 262.536 1000.64 262.226 1000.37 261.83C1000.1 261.423 999.962 260.965 999.962 260.456C999.962 259.97 1000.07 259.529 1000.3 259.133C1000.54 258.738 1000.92 258.421 1001.44 258.184C1001.97 257.946 1002.68 257.827 1003.57 257.827H1006.42V258.998H1003.64C1002.83 258.998 1002.28 259.133 1002 259.405C1001.71 259.676 1001.57 260.004 1001.57 260.388C1001.57 260.829 1001.75 261.185 1002.1 261.457C1002.45 261.717 1002.94 261.847 1003.56 261.847C1004.17 261.847 1004.7 261.711 1005.15 261.44C1005.61 261.168 1005.95 260.773 1006.15 260.253L1006.47 261.372C1006.26 261.903 1005.88 262.327 1005.34 262.644C1004.8 262.949 1004.11 263.102 1003.29 263.102ZM1011.03 263V253.215C1011.03 252.333 1011.28 251.632 1011.79 251.112C1012.31 250.58 1013.05 250.315 1014 250.315C1014.35 250.315 1014.68 250.36 1015 250.45C1015.33 250.529 1015.6 250.659 1015.83 250.84L1015.34 252.078C1015.17 251.943 1014.98 251.841 1014.76 251.773C1014.55 251.694 1014.32 251.654 1014.08 251.654C1013.61 251.654 1013.25 251.79 1013 252.061C1012.75 252.321 1012.62 252.711 1012.62 253.232V254.436L1012.66 255.182V263H1011.03ZM1009.5 255.351V254.012H1015.24V255.351H1009.5ZM1017.01 263V253.215C1017.01 252.333 1017.26 251.632 1017.77 251.112C1018.29 250.58 1019.03 250.315 1019.98 250.315C1020.33 250.315 1020.66 250.36 1020.98 250.45C1021.31 250.529 1021.58 250.659 1021.81 250.84L1021.32 252.078C1021.15 251.943 1020.95 251.841 1020.74 251.773C1020.53 251.694 1020.3 251.654 1020.06 251.654C1019.59 251.654 1019.23 251.79 1018.98 252.061C1018.73 252.321 1018.6 252.711 1018.6 253.232V254.436L1018.64 255.182V263H1017.01ZM1015.48 255.351V254.012H1021.22V255.351H1015.48ZM1022.76 263V254.012H1024.39V263H1022.76ZM1023.57 252.282C1023.26 252.282 1022.99 252.18 1022.78 251.977C1022.57 251.773 1022.47 251.524 1022.47 251.23C1022.47 250.925 1022.57 250.671 1022.78 250.467C1022.99 250.264 1023.26 250.162 1023.57 250.162C1023.89 250.162 1024.15 250.264 1024.35 250.467C1024.57 250.659 1024.67 250.902 1024.67 251.196C1024.67 251.502 1024.57 251.762 1024.37 251.977C1024.17 252.18 1023.9 252.282 1023.57 252.282ZM1027.49 263V250.416H1029.12V263H1027.49ZM1032.22 263V254.012H1033.85V263H1032.22ZM1033.04 252.282C1032.72 252.282 1032.46 252.18 1032.24 251.977C1032.04 251.773 1031.94 251.524 1031.94 251.23C1031.94 250.925 1032.04 250.671 1032.24 250.467C1032.46 250.264 1032.72 250.162 1033.04 250.162C1033.35 250.162 1033.61 250.264 1033.82 250.467C1034.03 250.659 1034.14 250.902 1034.14 251.196C1034.14 251.502 1034.04 251.762 1033.83 251.977C1033.63 252.18 1033.37 252.282 1033.04 252.282ZM1042.54 263V261.101L1042.46 260.744V257.505C1042.46 256.816 1042.25 256.284 1041.84 255.911C1041.45 255.527 1040.85 255.334 1040.05 255.334C1039.52 255.334 1039 255.425 1038.49 255.606C1037.98 255.775 1037.55 256.007 1037.2 256.301L1036.52 255.08C1036.98 254.707 1037.54 254.424 1038.18 254.232C1038.84 254.029 1039.52 253.927 1040.23 253.927C1041.47 253.927 1042.42 254.226 1043.08 254.826C1043.75 255.425 1044.08 256.341 1044.08 257.573V263H1042.54ZM1039.59 263.102C1038.92 263.102 1038.33 262.989 1037.83 262.763C1037.33 262.536 1036.94 262.226 1036.67 261.83C1036.4 261.423 1036.27 260.965 1036.27 260.456C1036.27 259.97 1036.38 259.529 1036.6 259.133C1036.84 258.738 1037.22 258.421 1037.74 258.184C1038.27 257.946 1038.98 257.827 1039.88 257.827H1042.73V258.998H1039.95C1039.13 258.998 1038.58 259.133 1038.3 259.405C1038.02 259.676 1037.88 260.004 1037.88 260.388C1037.88 260.829 1038.05 261.185 1038.4 261.457C1038.75 261.717 1039.24 261.847 1039.86 261.847C1040.47 261.847 1041 261.711 1041.45 261.44C1041.92 261.168 1042.25 260.773 1042.46 260.253L1042.78 261.372C1042.56 261.903 1042.18 262.327 1041.64 262.644C1041.1 262.949 1040.41 263.102 1039.59 263.102ZM1050.18 263.102C1049.28 263.102 1048.58 262.859 1048.08 262.373C1047.58 261.886 1047.33 261.191 1047.33 260.287V252.044H1048.96V260.219C1048.96 260.705 1049.08 261.078 1049.32 261.338C1049.57 261.598 1049.92 261.728 1050.37 261.728C1050.88 261.728 1051.3 261.587 1051.64 261.304L1052.15 262.474C1051.9 262.689 1051.6 262.847 1051.25 262.949C1050.91 263.051 1050.56 263.102 1050.18 263.102ZM1045.81 255.351V254.012H1051.54V255.351H1045.81ZM1057.82 263.102C1056.86 263.102 1056.01 262.904 1055.28 262.508C1054.56 262.112 1053.99 261.57 1053.58 260.88C1053.19 260.19 1052.99 259.399 1052.99 258.506C1052.99 257.613 1053.18 256.821 1053.57 256.132C1053.96 255.442 1054.5 254.905 1055.18 254.52C1055.87 254.125 1056.64 253.927 1057.5 253.927C1058.37 253.927 1059.14 254.119 1059.81 254.503C1060.47 254.888 1060.99 255.431 1061.37 256.132C1061.75 256.821 1061.94 257.63 1061.94 258.557C1061.94 258.625 1061.94 258.704 1061.93 258.794C1061.93 258.885 1061.92 258.969 1061.91 259.049H1054.26V257.878H1061.06L1060.4 258.285C1060.41 257.709 1060.29 257.194 1060.04 256.742C1059.8 256.29 1059.45 255.939 1059.01 255.691C1058.58 255.431 1058.08 255.301 1057.5 255.301C1056.94 255.301 1056.43 255.431 1055.99 255.691C1055.55 255.939 1055.21 256.295 1054.96 256.759C1054.71 257.211 1054.58 257.731 1054.58 258.319V258.591C1054.58 259.19 1054.72 259.727 1054.99 260.202C1055.27 260.665 1055.66 261.027 1056.16 261.287C1056.66 261.547 1057.23 261.677 1057.87 261.677C1058.4 261.677 1058.89 261.587 1059.31 261.406C1059.76 261.225 1060.14 260.954 1060.47 260.592L1061.37 261.643C1060.96 262.118 1060.45 262.48 1059.84 262.729C1059.24 262.977 1058.57 263.102 1057.82 263.102ZM1066.78 263.102C1066.04 263.102 1065.32 263 1064.65 262.796C1063.98 262.593 1063.45 262.344 1063.07 262.05L1063.75 260.761C1064.13 261.021 1064.61 261.242 1065.17 261.423C1065.74 261.604 1066.31 261.694 1066.9 261.694C1067.66 261.694 1068.2 261.587 1068.53 261.372C1068.87 261.157 1069.04 260.857 1069.04 260.473C1069.04 260.19 1068.94 259.97 1068.73 259.812C1068.53 259.653 1068.26 259.535 1067.92 259.456C1067.59 259.376 1067.22 259.309 1066.82 259.252C1066.41 259.184 1066 259.105 1065.6 259.015C1065.19 258.913 1064.81 258.777 1064.48 258.608C1064.14 258.427 1063.87 258.184 1063.66 257.878C1063.46 257.562 1063.36 257.143 1063.36 256.623C1063.36 256.081 1063.51 255.606 1063.81 255.199C1064.12 254.792 1064.55 254.481 1065.1 254.266C1065.67 254.04 1066.34 253.927 1067.1 253.927C1067.69 253.927 1068.29 254 1068.89 254.147C1069.5 254.283 1069.99 254.481 1070.38 254.741L1069.68 256.03C1069.28 255.758 1068.85 255.572 1068.41 255.47C1067.97 255.368 1067.53 255.318 1067.09 255.318C1066.38 255.318 1065.84 255.436 1065.49 255.674C1065.14 255.9 1064.97 256.194 1064.97 256.556C1064.97 256.861 1065.07 257.098 1065.27 257.268C1065.49 257.426 1065.76 257.55 1066.09 257.641C1066.43 257.731 1066.8 257.81 1067.21 257.878C1067.61 257.935 1068.02 258.014 1068.43 258.116C1068.83 258.206 1069.2 258.336 1069.53 258.506C1069.87 258.675 1070.14 258.913 1070.34 259.218C1070.56 259.523 1070.67 259.93 1070.67 260.439C1070.67 260.982 1070.51 261.451 1070.19 261.847C1069.87 262.242 1069.43 262.553 1068.85 262.78C1068.27 262.994 1067.58 263.102 1066.78 263.102ZM1081.1 263.102C1080.2 263.102 1079.4 262.904 1078.7 262.508C1078 262.112 1077.44 261.57 1077.03 260.88C1076.63 260.179 1076.42 259.388 1076.42 258.506C1076.42 257.613 1076.63 256.821 1077.03 256.132C1077.44 255.442 1078 254.905 1078.7 254.52C1079.4 254.125 1080.2 253.927 1081.1 253.927C1082 253.927 1082.79 254.125 1083.5 254.52C1084.21 254.905 1084.76 255.442 1085.16 256.132C1085.56 256.81 1085.77 257.601 1085.77 258.506C1085.77 259.399 1085.56 260.19 1085.16 260.88C1084.76 261.57 1084.21 262.112 1083.5 262.508C1082.79 262.904 1082 263.102 1081.1 263.102ZM1081.1 261.677C1081.68 261.677 1082.2 261.547 1082.65 261.287C1083.11 261.027 1083.47 260.66 1083.73 260.185C1083.99 259.699 1084.12 259.139 1084.12 258.506C1084.12 257.861 1083.99 257.307 1083.73 256.844C1083.47 256.369 1083.11 256.002 1082.65 255.741C1082.2 255.481 1081.68 255.351 1081.1 255.351C1080.53 255.351 1080.01 255.481 1079.56 255.741C1079.11 256.002 1078.75 256.369 1078.48 256.844C1078.2 257.307 1078.07 257.861 1078.07 258.506C1078.07 259.139 1078.2 259.699 1078.48 260.185C1078.75 260.66 1079.11 261.027 1079.56 261.287C1080.01 261.547 1080.53 261.677 1081.1 261.677ZM1092.82 253.927C1093.55 253.927 1094.2 254.068 1094.75 254.351C1095.32 254.633 1095.76 255.063 1096.08 255.64C1096.39 256.216 1096.55 256.946 1096.55 257.827V263H1094.92V258.014C1094.92 257.143 1094.71 256.488 1094.28 256.047C1093.86 255.606 1093.27 255.385 1092.5 255.385C1091.92 255.385 1091.42 255.498 1090.99 255.725C1090.56 255.951 1090.22 256.284 1089.99 256.725C1089.76 257.166 1089.65 257.714 1089.65 258.37V263H1088.02V254.012H1089.58V256.437L1089.33 255.792C1089.62 255.204 1090.07 254.747 1090.68 254.419C1091.29 254.091 1092.01 253.927 1092.82 253.927ZM1109.7 263V261.101L1109.61 260.744V257.505C1109.61 256.816 1109.41 256.284 1109 255.911C1108.61 255.527 1108.01 255.334 1107.2 255.334C1106.67 255.334 1106.15 255.425 1105.64 255.606C1105.14 255.775 1104.71 256.007 1104.36 256.301L1103.68 255.08C1104.14 254.707 1104.69 254.424 1105.34 254.232C1105.99 254.029 1106.68 253.927 1107.39 253.927C1108.62 253.927 1109.57 254.226 1110.24 254.826C1110.91 255.425 1111.24 256.341 1111.24 257.573V263H1109.7ZM1106.75 263.102C1106.08 263.102 1105.49 262.989 1104.98 262.763C1104.49 262.536 1104.1 262.226 1103.83 261.83C1103.56 261.423 1103.42 260.965 1103.42 260.456C1103.42 259.97 1103.54 259.529 1103.76 259.133C1104 258.738 1104.38 258.421 1104.9 258.184C1105.43 257.946 1106.14 257.827 1107.04 257.827H1109.88V258.998H1107.1C1106.29 258.998 1105.74 259.133 1105.46 259.405C1105.18 259.676 1105.03 260.004 1105.03 260.388C1105.03 260.829 1105.21 261.185 1105.56 261.457C1105.91 261.717 1106.4 261.847 1107.02 261.847C1107.63 261.847 1108.16 261.711 1108.61 261.44C1109.08 261.168 1109.41 260.773 1109.61 260.253L1109.94 261.372C1109.72 261.903 1109.34 262.327 1108.8 262.644C1108.26 262.949 1107.57 263.102 1106.75 263.102ZM1122.52 263.102C1121.65 263.102 1120.87 262.91 1120.18 262.525C1119.5 262.141 1118.97 261.604 1118.57 260.914C1118.18 260.224 1117.98 259.422 1117.98 258.506C1117.98 257.59 1118.18 256.793 1118.57 256.115C1118.97 255.425 1119.5 254.888 1120.18 254.503C1120.87 254.119 1121.65 253.927 1122.52 253.927C1123.28 253.927 1123.96 254.096 1124.57 254.436C1125.18 254.775 1125.67 255.284 1126.03 255.962C1126.41 256.64 1126.59 257.488 1126.59 258.506C1126.59 259.523 1126.41 260.371 1126.05 261.05C1125.7 261.728 1125.22 262.242 1124.61 262.593C1124 262.932 1123.3 263.102 1122.52 263.102ZM1122.66 261.677C1123.22 261.677 1123.73 261.547 1124.18 261.287C1124.65 261.027 1125.01 260.66 1125.27 260.185C1125.54 259.699 1125.68 259.139 1125.68 258.506C1125.68 257.861 1125.54 257.307 1125.27 256.844C1125.01 256.369 1124.65 256.002 1124.18 255.741C1123.73 255.481 1123.22 255.351 1122.66 255.351C1122.08 255.351 1121.57 255.481 1121.11 255.741C1120.66 256.002 1120.3 256.369 1120.03 256.844C1119.76 257.307 1119.62 257.861 1119.62 258.506C1119.62 259.139 1119.76 259.699 1120.03 260.185C1120.3 260.66 1120.66 261.027 1121.11 261.287C1121.57 261.547 1122.08 261.677 1122.66 261.677ZM1125.73 263V260.575L1125.83 258.489L1125.66 256.403V250.416H1127.29V263H1125.73ZM1135.95 263V261.101L1135.86 260.744V257.505C1135.86 256.816 1135.66 256.284 1135.25 255.911C1134.86 255.527 1134.26 255.334 1133.45 255.334C1132.92 255.334 1132.4 255.425 1131.89 255.606C1131.39 255.775 1130.96 256.007 1130.61 256.301L1129.93 255.08C1130.39 254.707 1130.94 254.424 1131.59 254.232C1132.25 254.029 1132.93 253.927 1133.64 253.927C1134.87 253.927 1135.82 254.226 1136.49 254.826C1137.16 255.425 1137.49 256.341 1137.49 257.573V263H1135.95ZM1133 263.102C1132.33 263.102 1131.74 262.989 1131.23 262.763C1130.74 262.536 1130.35 262.226 1130.08 261.83C1129.81 261.423 1129.67 260.965 1129.67 260.456C1129.67 259.97 1129.79 259.529 1130.01 259.133C1130.25 258.738 1130.63 258.421 1131.15 258.184C1131.68 257.946 1132.39 257.827 1133.29 257.827H1136.13V258.998H1133.35C1132.54 258.998 1131.99 259.133 1131.71 259.405C1131.43 259.676 1131.28 260.004 1131.28 260.388C1131.28 260.829 1131.46 261.185 1131.81 261.457C1132.16 261.717 1132.65 261.847 1133.27 261.847C1133.88 261.847 1134.41 261.711 1134.86 261.44C1135.33 261.168 1135.66 260.773 1135.86 260.253L1136.19 261.372C1135.97 261.903 1135.59 262.327 1135.05 262.644C1134.51 262.949 1133.82 263.102 1133 263.102ZM1140.5 263V254.012H1142.13V263H1140.5ZM1141.32 252.282C1141 252.282 1140.74 252.18 1140.52 251.977C1140.32 251.773 1140.22 251.524 1140.22 251.23C1140.22 250.925 1140.32 250.671 1140.52 250.467C1140.74 250.264 1141 250.162 1141.32 250.162C1141.63 250.162 1141.89 250.264 1142.1 250.467C1142.31 250.659 1142.42 250.902 1142.42 251.196C1142.42 251.502 1142.32 251.762 1142.12 251.977C1141.91 252.18 1141.65 252.282 1141.32 252.282ZM1145.24 263V250.416H1146.87V263H1145.24ZM1150.37 266.392C1149.94 266.392 1149.52 266.318 1149.11 266.171C1148.71 266.036 1148.35 265.832 1148.06 265.561L1148.76 264.34C1148.98 264.555 1149.23 264.719 1149.5 264.832C1149.77 264.945 1150.06 265.001 1150.37 265.001C1150.76 265.001 1151.09 264.899 1151.35 264.696C1151.61 264.492 1151.85 264.131 1152.08 263.611L1152.64 262.373L1152.81 262.169L1156.34 254.012H1157.93L1153.57 263.899C1153.31 264.532 1153.02 265.029 1152.69 265.391C1152.37 265.753 1152.02 266.007 1151.64 266.154C1151.25 266.313 1150.83 266.392 1150.37 266.392ZM1152.5 263.288L1148.4 254.012H1150.1L1153.59 262.016L1152.5 263.288ZM1168.77 263.102C1168 263.102 1167.31 262.932 1166.68 262.593C1166.07 262.242 1165.59 261.728 1165.23 261.05C1164.88 260.371 1164.7 259.523 1164.7 258.506C1164.7 257.488 1164.88 256.64 1165.24 255.962C1165.62 255.284 1166.11 254.775 1166.72 254.436C1167.34 254.096 1168.02 253.927 1168.77 253.927C1169.65 253.927 1170.43 254.119 1171.11 254.503C1171.79 254.888 1172.33 255.425 1172.72 256.115C1173.12 256.793 1173.32 257.59 1173.32 258.506C1173.32 259.422 1173.12 260.224 1172.72 260.914C1172.33 261.604 1171.79 262.141 1171.11 262.525C1170.43 262.91 1169.65 263.102 1168.77 263.102ZM1164.01 263V250.416H1165.63V256.403L1165.46 258.489L1165.57 260.575V263H1164.01ZM1168.63 261.677C1169.21 261.677 1169.73 261.547 1170.18 261.287C1170.64 261.027 1171 260.66 1171.26 260.185C1171.53 259.699 1171.67 259.139 1171.67 258.506C1171.67 257.861 1171.53 257.307 1171.26 256.844C1171 256.369 1170.64 256.002 1170.18 255.741C1169.73 255.481 1169.21 255.351 1168.63 255.351C1168.07 255.351 1167.56 255.481 1167.09 255.741C1166.64 256.002 1166.28 256.369 1166.01 256.844C1165.75 257.307 1165.62 257.861 1165.62 258.506C1165.62 259.139 1165.75 259.699 1166.01 260.185C1166.28 260.66 1166.64 261.027 1167.09 261.287C1167.56 261.547 1168.07 261.677 1168.63 261.677ZM1181.06 263V261.101L1180.98 260.744V257.505C1180.98 256.816 1180.77 256.284 1180.37 255.911C1179.97 255.527 1179.37 255.334 1178.57 255.334C1178.04 255.334 1177.52 255.425 1177.01 255.606C1176.5 255.775 1176.07 256.007 1175.72 256.301L1175.04 255.08C1175.5 254.707 1176.06 254.424 1176.7 254.232C1177.36 254.029 1178.04 253.927 1178.76 253.927C1179.99 253.927 1180.94 254.226 1181.6 254.826C1182.27 255.425 1182.61 256.341 1182.61 257.573V263H1181.06ZM1178.11 263.102C1177.44 263.102 1176.86 262.989 1176.35 262.763C1175.85 262.536 1175.47 262.226 1175.19 261.83C1174.92 261.423 1174.79 260.965 1174.79 260.456C1174.79 259.97 1174.9 259.529 1175.13 259.133C1175.36 258.738 1175.74 258.421 1176.26 258.184C1176.79 257.946 1177.51 257.827 1178.4 257.827H1181.25V258.998H1178.47C1177.65 258.998 1177.1 259.133 1176.82 259.405C1176.54 259.676 1176.4 260.004 1176.4 260.388C1176.4 260.829 1176.57 261.185 1176.92 261.457C1177.27 261.717 1177.76 261.847 1178.38 261.847C1178.99 261.847 1179.52 261.711 1179.98 261.44C1180.44 261.168 1180.77 260.773 1180.98 260.253L1181.3 261.372C1181.08 261.903 1180.71 262.327 1180.16 262.644C1179.62 262.949 1178.94 263.102 1178.11 263.102ZM1188.2 263.102C1187.45 263.102 1186.74 263 1186.06 262.796C1185.39 262.593 1184.87 262.344 1184.48 262.05L1185.16 260.761C1185.54 261.021 1186.02 261.242 1186.58 261.423C1187.15 261.604 1187.73 261.694 1188.31 261.694C1189.07 261.694 1189.61 261.587 1189.94 261.372C1190.28 261.157 1190.45 260.857 1190.45 260.473C1190.45 260.19 1190.35 259.97 1190.15 259.812C1189.94 259.653 1189.67 259.535 1189.33 259.456C1189 259.376 1188.64 259.309 1188.23 259.252C1187.82 259.184 1187.42 259.105 1187.01 259.015C1186.6 258.913 1186.23 258.777 1185.89 258.608C1185.55 258.427 1185.28 258.184 1185.08 257.878C1184.87 257.562 1184.77 257.143 1184.77 256.623C1184.77 256.081 1184.92 255.606 1185.23 255.199C1185.53 254.792 1185.96 254.481 1186.52 254.266C1187.08 254.04 1187.75 253.927 1188.52 253.927C1189.11 253.927 1189.7 254 1190.3 254.147C1190.91 254.283 1191.41 254.481 1191.79 254.741L1191.1 256.03C1190.69 255.758 1190.26 255.572 1189.82 255.47C1189.38 255.368 1188.94 255.318 1188.5 255.318C1187.79 255.318 1187.26 255.436 1186.91 255.674C1186.56 255.9 1186.38 256.194 1186.38 256.556C1186.38 256.861 1186.48 257.098 1186.69 257.268C1186.9 257.426 1187.17 257.55 1187.5 257.641C1187.84 257.731 1188.21 257.81 1188.62 257.878C1189.03 257.935 1189.43 258.014 1189.84 258.116C1190.25 258.206 1190.62 258.336 1190.94 258.506C1191.28 258.675 1191.55 258.913 1191.76 259.218C1191.97 259.523 1192.08 259.93 1192.08 260.439C1192.08 260.982 1191.92 261.451 1191.6 261.847C1191.29 262.242 1190.84 262.553 1190.26 262.78C1189.69 262.994 1189 263.102 1188.2 263.102ZM1194.11 263V254.012H1195.74V263H1194.11ZM1194.93 252.282C1194.61 252.282 1194.35 252.18 1194.13 251.977C1193.93 251.773 1193.83 251.524 1193.83 251.23C1193.83 250.925 1193.93 250.671 1194.13 250.467C1194.35 250.264 1194.61 250.162 1194.93 250.162C1195.24 250.162 1195.5 250.264 1195.71 250.467C1195.92 250.659 1196.03 250.902 1196.03 251.196C1196.03 251.502 1195.93 251.762 1195.73 251.977C1195.52 252.18 1195.26 252.282 1194.93 252.282ZM1201.43 263.102C1200.68 263.102 1199.97 263 1199.29 262.796C1198.62 262.593 1198.1 262.344 1197.71 262.05L1198.39 260.761C1198.78 261.021 1199.25 261.242 1199.82 261.423C1200.38 261.604 1200.96 261.694 1201.55 261.694C1202.3 261.694 1202.85 261.587 1203.18 261.372C1203.51 261.157 1203.68 260.857 1203.68 260.473C1203.68 260.19 1203.58 259.97 1203.38 259.812C1203.18 259.653 1202.9 259.535 1202.56 259.456C1202.24 259.376 1201.87 259.309 1201.46 259.252C1201.06 259.184 1200.65 259.105 1200.24 259.015C1199.83 258.913 1199.46 258.777 1199.12 258.608C1198.78 258.427 1198.51 258.184 1198.31 257.878C1198.1 257.562 1198 257.143 1198 256.623C1198 256.081 1198.16 255.606 1198.46 255.199C1198.77 254.792 1199.2 254.481 1199.75 254.266C1200.31 254.04 1200.98 253.927 1201.75 253.927C1202.34 253.927 1202.93 254 1203.53 254.147C1204.14 254.283 1204.64 254.481 1205.02 254.741L1204.33 256.03C1203.92 255.758 1203.5 255.572 1203.06 255.47C1202.62 255.368 1202.17 255.318 1201.73 255.318C1201.02 255.318 1200.49 255.436 1200.14 255.674C1199.79 255.9 1199.61 256.194 1199.61 256.556C1199.61 256.861 1199.72 257.098 1199.92 257.268C1200.13 257.426 1200.41 257.55 1200.73 257.641C1201.07 257.731 1201.45 257.81 1201.85 257.878C1202.26 257.935 1202.67 258.014 1203.07 258.116C1203.48 258.206 1203.85 258.336 1204.18 258.506C1204.52 258.675 1204.79 258.913 1204.99 259.218C1205.2 259.523 1205.31 259.93 1205.31 260.439C1205.31 260.982 1205.15 261.451 1204.84 261.847C1204.52 262.242 1204.07 262.553 1203.5 262.78C1202.92 262.994 1202.23 263.102 1201.43 263.102Z" fill="white"/>
</g>
<defs>
<linearGradient id="paint0_linear_268_61" x1="287.384" y1="-104.032" x2="392.868" y2="268.266" gradientUnits="userSpaceOnUse">
<stop stop-color="#9EDFFF"/>
<stop offset="1" stop-color="#558EFF" stop-opacity="0"/>
</linearGradient>
<radialGradient id="paint1_radial_268_61" cx="0" cy="0" r="1" gradientUnits="userSpaceOnUse" gradientTransform="translate(356.5 238) rotate(90) scale(84 0.5)">
<stop stop-color="white"/>
<stop offset="1" stop-color="white" stop-opacity="0"/>
</radialGradient>
<radialGradient id="paint2_radial_268_61" cx="0" cy="0" r="1" gradientUnits="userSpaceOnUse" gradientTransform="translate(837.5 238) rotate(90) scale(84 0.5)">
<stop stop-color="white"/>
<stop offset="1" stop-color="white" stop-opacity="0"/>
</radialGradient>
<clipPath id="clip0_268_61">
<rect width="1302" height="375" fill="white"/>
</clipPath>
</defs>
</svg>
