<svg width="315" height="314" viewBox="0 0 315 314" fill="none" xmlns="http://www.w3.org/2000/svg">
<rect x="0.733398" y="0.146484" width="313.794" height="313.794" rx="156.897" fill="#ABBCCC"/>
<g filter="url(#filter0_d_586_2613)">
<path d="M77.0317 215.513L84.3672 219.305L86.7911 214.616L83.5533 210.448L77.0317 215.513ZM97.1776 234.998L102.032 228.318L98.0327 225.412L93.5825 227.564L97.1776 234.998ZM56.8857 254.484L49.5502 250.692C47.9178 253.85 48.4894 257.698 50.9693 260.245C53.4492 262.791 57.2807 263.466 60.4809 261.918L56.8857 254.484ZM117.332 118.066L112.483 111.382C110.342 112.936 109.075 115.421 109.075 118.066H117.332ZM197.928 196.019V204.277C200.316 204.277 202.587 203.243 204.156 201.442L197.928 196.019ZM123.593 113.525L118.744 106.84L118.744 106.84L123.593 113.525ZM139.634 120.111L131.445 121.17L131.445 121.17L139.634 120.111ZM141.907 137.698L150.097 136.639L150.097 136.639L141.907 137.698ZM139.034 145.796L133.293 139.861L133.293 139.861L139.034 145.796ZM202.394 190.89L196.166 185.467L196.166 185.467L202.394 190.89ZM196.146 174.972L197.304 166.796L197.304 166.796L196.146 174.972ZM177.747 172.367L178.904 164.191L177.747 172.367ZM169.165 175.119L174.906 181.054L174.906 181.054L169.165 175.119ZM48.6281 157.043C48.6281 180.902 56.7892 202.913 70.5101 220.578L83.5533 210.448C71.9745 195.54 65.1436 177.06 65.1436 157.043H48.6281ZM157.63 51.3438C97.6916 51.3438 48.6281 98.4095 48.6281 157.043H65.1436C65.1436 108.045 106.29 67.8593 157.63 67.8593V51.3438ZM266.632 157.043C266.632 98.4095 217.569 51.3438 157.63 51.3438V67.8593C208.971 67.8593 250.117 108.045 250.117 157.043H266.632ZM157.63 262.742C217.569 262.742 266.632 215.676 266.632 157.043H250.117C250.117 206.04 208.971 246.226 157.63 246.226V262.742ZM92.3236 241.679C110.543 254.917 133.167 262.742 157.63 262.742V246.226C136.729 246.226 117.49 239.55 102.032 228.318L92.3236 241.679ZM60.4809 261.918L100.773 242.432L93.5825 227.564L53.2906 247.05L60.4809 261.918ZM69.6962 211.721L49.5502 250.692L64.2213 258.276L84.3672 219.305L69.6962 211.721ZM109.075 118.066V127.81H125.59V118.066H109.075ZM187.853 204.277H197.928V187.762H187.853V204.277ZM109.075 127.81C109.075 170.299 144.607 204.277 187.853 204.277V187.762C153.205 187.762 125.59 160.663 125.59 127.81H109.075ZM122.181 124.751L128.442 120.209L118.744 106.84L112.483 111.382L122.181 124.751ZM131.445 121.17L133.718 138.756L150.097 136.639L147.824 119.053L131.445 121.17ZM133.293 139.861L121.666 151.107L133.148 162.978L144.775 151.732L133.293 139.861ZM133.718 138.756C133.762 139.102 133.653 139.513 133.293 139.861L144.775 151.732C148.812 147.828 150.823 142.26 150.097 136.639L133.718 138.756ZM128.442 120.209C129.032 119.781 129.747 119.706 130.438 119.989C131.119 120.269 131.386 120.716 131.445 121.17L147.824 119.053C146.013 105.037 129.694 98.8972 118.744 106.84L128.442 120.209ZM204.156 201.442L208.622 196.312L196.166 185.467L191.7 190.597L204.156 201.442ZM197.304 166.796L178.904 164.191L176.59 180.544L194.989 183.148L197.304 166.796ZM163.424 169.183L151.889 180.34L163.371 192.211L174.906 181.054L163.424 169.183ZM178.904 164.191C173.28 163.395 167.539 165.203 163.424 169.183L174.906 181.054C175.292 180.681 175.915 180.448 176.59 180.544L178.904 164.191ZM208.622 196.312C218.265 185.236 211.208 168.764 197.304 166.796L194.989 183.148C195.824 183.266 196.239 183.714 196.419 184.172C196.515 184.416 196.531 184.64 196.503 184.817C196.48 184.965 196.413 185.183 196.166 185.467L208.622 196.312Z" fill="white"/>
</g>
<defs>
<filter id="filter0_d_586_2613" x="44.6279" y="51.3438" width="226.004" height="219.398" filterUnits="userSpaceOnUse" color-interpolation-filters="sRGB">
<feFlood flood-opacity="0" result="BackgroundImageFix"/>
<feColorMatrix in="SourceAlpha" type="matrix" values="0 0 0 0 0 0 0 0 0 0 0 0 0 0 0 0 0 0 127 0" result="hardAlpha"/>
<feOffset dy="4"/>
<feGaussianBlur stdDeviation="2"/>
<feComposite in2="hardAlpha" operator="out"/>
<feColorMatrix type="matrix" values="0 0 0 0 0 0 0 0 0 0 0 0 0 0 0 0 0 0 0.25 0"/>
<feBlend mode="normal" in2="BackgroundImageFix" result="effect1_dropShadow_586_2613"/>
<feBlend mode="normal" in="SourceGraphic" in2="effect1_dropShadow_586_2613" result="shape"/>
</filter>
</defs>
</svg>
