<svg width="886" height="490" viewBox="0 0 886 490" fill="none" xmlns="http://www.w3.org/2000/svg">
<ellipse cx="139.5" cy="342" rx="139.5" ry="142" fill="white"/>
<path d="M165.099 246.364V450H122.045V287.23H120.852L74.2188 316.463V278.281L124.631 246.364H165.099Z" fill="black"/>
<path d="M384.824 326.33V484H309.185V211.273H381.273V259.391H384.469C390.506 243.529 400.626 230.982 414.831 221.749C429.036 212.397 446.259 207.722 466.5 207.722C485.439 207.722 501.952 211.865 516.038 220.151C530.125 228.437 541.074 240.274 548.886 255.662C556.699 270.932 560.605 289.161 560.605 310.349V484H484.966V323.844C485.084 307.153 480.823 294.133 472.182 284.781C463.541 275.312 451.644 270.577 436.493 270.577C426.313 270.577 417.317 272.767 409.504 277.146C401.81 281.526 395.773 287.918 391.393 296.322C387.132 304.608 384.942 314.611 384.824 326.33Z" fill="white"/>
<path d="M731.474 489.327C703.42 489.327 679.273 483.645 659.031 472.281C638.908 460.799 623.402 444.582 612.511 423.631C601.621 402.561 596.176 377.643 596.176 348.879C596.176 320.825 601.621 296.204 612.511 275.016C623.402 253.827 638.731 237.314 658.499 225.477C678.385 213.64 701.704 207.722 728.456 207.722C746.448 207.722 763.198 210.622 778.705 216.422C794.33 222.104 807.942 230.686 819.543 242.168C831.261 253.65 840.376 268.091 846.886 285.491C853.397 302.774 856.652 323.015 856.652 346.216V366.99H626.361V320.115H785.452C785.452 309.225 783.084 299.578 778.349 291.173C773.615 282.769 767.045 276.199 758.641 271.464C750.355 266.611 740.707 264.185 729.699 264.185C718.217 264.185 708.037 266.848 699.159 272.175C690.4 277.383 683.534 284.426 678.562 293.304C673.591 302.063 671.046 311.829 670.928 322.601V367.168C670.928 380.662 673.413 392.321 678.385 402.146C683.475 411.971 690.636 419.547 699.869 424.874C709.102 430.2 720.052 432.864 732.717 432.864C741.122 432.864 748.816 431.68 755.8 429.312C762.784 426.945 768.761 423.394 773.733 418.659C778.705 413.924 782.492 408.124 785.097 401.259L855.054 405.875C851.503 422.684 844.223 437.362 833.214 449.909C822.324 462.338 808.238 472.045 790.956 479.028C773.792 485.894 753.965 489.327 731.474 489.327Z" fill="white"/>
<rect x="671" y="320" width="8" height="47" fill="black"/>
</svg>
