<svg xmlns="http://www.w3.org/2000/svg" width="56" height="56" viewBox="0 0 56 56">
    <g fill="#20A052" fill-rule="nonzero">
        <path d="M34.563 37.844a1.094 1.094 0 1 0 0 2.188 1.094 1.094 0 0 0 0-2.188z"/>
        <path d="M50.531 0H5.47A5.475 5.475 0 0 0 0 5.469v33.468a5.475 5.475 0 0 0 5.469 5.47H22.53v5.03h-1.093c-1.46 0-2.834.57-3.867 1.603a5.433 5.433 0 0 0-1.602 3.866c0 .604.49 1.094 1.094 1.094h21.875c.604 0 1.093-.49 1.093-1.094a5.475 5.475 0 0 0-5.468-5.468h-1.094v-5.032H50.53A5.475 5.475 0 0 0 56 38.938V5.468A5.475 5.475 0 0 0 50.531 0zM5.47 2.188H50.53a3.285 3.285 0 0 1 3.282 3.28v28H48.78V8.313c0-.604-.49-1.093-1.093-1.093h-8.75c-.605 0-1.094.49-1.094 1.093V33.47h-5.475a100.514 100.514 0 0 0-.088-3.328c-.191-4.455-.628-7.439-.854-8.751a5.47 5.47 0 0 0 1.493-7.134L29.129 7.69a1.094 1.094 0 0 0-1.895 0l-3.792 6.566c-1.3 2.256-.84 5.178 1.203 6.903-.236 1.308-.714 4.399-.922 8.98-.049 1.093-.08 2.209-.092 3.33h-5.475V17.062c0-.173-.04-.331-.108-.472l-.007-.017-4.375-8.75a1.094 1.094 0 0 0-1.957 0l-4.375 8.75-.007.017a1.087 1.087 0 0 0-.108.473v16.406H2.187v-28A3.285 3.285 0 0 1 5.47 2.187zm34.562 31.28V9.407h6.563v2.188H45.5a1.094 1.094 0 1 0 0 2.187h1.094v3.281H45.5a1.094 1.094 0 1 0 0 2.188h1.094v3.281H45.5a1.094 1.094 0 1 0 0 2.188h1.094v4.375H45.5a1.094 1.094 0 1 0 0 2.187h1.094v2.188H40.03zm-11.85-11.012c.398 0 .794-.046 1.18-.132.204 1.301.502 3.603.678 6.77h-4.071c.185-3.164.497-5.502.713-6.847.485.138.99.209 1.5.209zm0-2.188c-2.5 0-4.111-2.72-2.844-4.918l2.845-4.926 2.843 4.925c1.262 2.189-.328 4.92-2.843 4.92zm-2.313 11.013h4.267c.023.719.04 1.45.047 2.188h-4.364c.009-.733.025-1.464.05-2.188zM13.78 33.47V18.156h2.188V33.47H13.78zm-4.375 0V18.156h2.188V33.47H9.406zm.676-17.5l2.605-5.21 2.606 5.21h-5.21zm27.574 37.843H18.343c.16-.455.423-.873.775-1.226a3.26 3.26 0 0 1 2.32-.961h13.125c1.426 0 2.642.914 3.093 2.188zm-6.375-4.374H24.72v-5.032h6.562v5.032zm19.25-7.22H5.47a3.285 3.285 0 0 1-3.282-3.28v-3.282h51.626v3.282a3.285 3.285 0 0 1-3.282 3.28z"/>
        <path d="M30.188 37.844h-6.563a1.094 1.094 0 1 0 0 2.187h6.563a1.094 1.094 0 1 0 0-2.187z"/>
    </g>
</svg>
