<svg xmlns="http://www.w3.org/2000/svg" width="50" height="60" viewBox="0 0 50 60">
    <g fill="#20A052" fill-rule="evenodd">
        <path d="M45.403 25.112c-.69 0-1.25-.559-1.25-1.25v-3.95C43.329 7.972 33.988 2.5 25.649 2.5h-.072c-6.404 0-11.811 1.881-15.235 5.3-2.982 2.979-4.495 7.054-4.495 12.112v3.95a1.25 1.25 0 1 1-2.5 0v-3.95c0-5.746 1.76-10.416 5.228-13.88C12.48 2.131 18.51-.013 25.623 0h.03c9.46 0 20.06 6.2 20.997 19.827l.003 4.035c0 .691-.56 1.25-1.25 1.25z"/>
        <g fill-rule="nonzero">
            <path d="M46.027 37.68H45.02c-1.954 0-3.544-1.544-3.544-3.44v-8.185c0-1.899 1.59-3.443 3.544-3.443h1.007c1.955 0 3.545 1.544 3.545 3.443v8.185c0 1.896-1.59 3.44-3.545 3.44zM45.02 25.113c-.575 0-1.044.423-1.044.943v8.185c0 .518.469.94 1.044.94h1.007c.576 0 1.045-.422 1.045-.94v-8.185c0-.52-.47-.943-1.045-.943H45.02zM4.98 37.68H3.973c-1.955 0-3.545-1.544-3.545-3.44v-8.185c0-1.899 1.59-3.443 3.545-3.443H4.98c1.954 0 3.544 1.544 3.544 3.443v8.185c0 1.896-1.59 3.44-3.544 3.44zM3.973 25.113c-.576 0-1.045.423-1.045.943v8.185c0 .518.47.94 1.045.94H4.98c.575 0 1.044-.422 1.044-.94v-8.185c0-.52-.469-.943-1.044-.943H3.973z"/>
        </g>
        <path fill-rule="nonzero" d="M25.005 47.85c-2.54 0-5.103-1.1-7.414-3.176-4.584-4.111-7.911-11.748-7.911-18.158 0-9.018 6.875-16.355 15.325-16.355 8.443 0 15.312 7.337 15.312 16.355 0 6.41-3.327 14.047-7.912 18.158-2.31 2.076-4.87 3.175-7.4 3.175zm0-35.189c-7.072 0-12.825 6.216-12.825 13.855 0 5.67 3.044 12.677 7.08 16.298 1.847 1.659 3.833 2.535 5.745 2.535 1.93 0 3.859-.853 5.73-2.535 4.038-3.62 7.082-10.628 7.082-16.298 0-7.639-5.747-13.855-12.812-13.855z"/>
        <path d="M43.387 60H6.61a1.25 1.25 0 0 1-1.228-1.482l1.13-5.97c1.082-5.715 6.083-9.943 11.89-10.054.659.035 1.261.536 1.275 1.225a1.25 1.25 0 0 1-1.227 1.275c-4.631.088-8.62 3.46-9.482 8.019l-.85 4.487h33.76l-.849-4.489c-.863-4.556-4.851-7.93-9.482-8.017a1.25 1.25 0 0 1-1.227-1.275c.014-.69.588-1.28 1.274-1.225 5.808.111 10.809 4.34 11.891 10.052l1.13 5.972A1.247 1.247 0 0 1 43.387 60zM22.059 41.047H4.979c-.69 0-1.25-.559-1.25-1.25v-3.366a1.25 1.25 0 1 1 2.5 0v2.116h15.83a1.25 1.25 0 1 1 0 2.5z"/>
    </g>
</svg>
