<svg width="50" height="60" viewBox="0 0 50 60" fill="none" xmlns="http://www.w3.org/2000/svg">
<path fill-rule="evenodd" clip-rule="evenodd" d="M44.9759 25.1121C44.2859 25.1121 43.7259 24.5531 43.7259 23.8621V19.9121C42.9019 7.97206 33.5609 2.50006 25.2219 2.50006H25.1499C18.7459 2.50006 13.3389 4.38106 9.91492 7.80006C6.93292 10.7791 5.41992 14.8541 5.41992 19.9121V23.8621C5.41992 24.1936 5.28823 24.5115 5.05381 24.7459C4.81939 24.9804 4.50144 25.1121 4.16992 25.1121C3.8384 25.1121 3.52046 24.9804 3.28604 24.7459C3.05162 24.5115 2.91992 24.1936 2.91992 23.8621V19.9121C2.91992 14.1661 4.67992 9.49606 8.14792 6.03206C12.0529 2.13106 18.0829 -0.0129412 25.1959 5.87731e-05H25.2259C34.6859 5.87731e-05 45.2859 6.20006 46.2229 19.8271L46.2259 23.8621C46.2259 24.5531 45.6659 25.1121 44.9759 25.1121Z" fill="#198CDE" style="fill:#198CDE;fill:color(display-p3 0.0980 0.5490 0.8706);fill-opacity:1;"/>
<path d="M45.599 37.6803H44.592C42.638 37.6803 41.048 36.1363 41.048 34.2403V26.0553C41.048 24.1563 42.638 22.6123 44.592 22.6123H45.599C47.554 22.6123 49.144 24.1563 49.144 26.0553V34.2403C49.144 36.1363 47.554 37.6803 45.599 37.6803ZM44.592 25.1133C44.017 25.1133 43.548 25.5363 43.548 26.0563V34.2413C43.548 34.7593 44.017 35.1813 44.592 35.1813H45.599C46.175 35.1813 46.644 34.7593 46.644 34.2413V26.0563C46.644 25.5363 46.174 25.1133 45.599 25.1133H44.592ZM4.552 37.6803H3.545C1.59 37.6803 0 36.1363 0 34.2403V26.0553C0 24.1563 1.59 22.6123 3.545 22.6123H4.552C6.506 22.6123 8.096 24.1563 8.096 26.0553V34.2403C8.096 36.1363 6.506 37.6803 4.552 37.6803ZM3.545 25.1133C2.969 25.1133 2.5 25.5363 2.5 26.0563V34.2413C2.5 34.7593 2.97 35.1813 3.545 35.1813H4.552C5.127 35.1813 5.596 34.7593 5.596 34.2413V26.0563C5.596 25.5363 5.127 25.1133 4.552 25.1133H3.545Z" fill="#198CDE" style="fill:#198CDE;fill:color(display-p3 0.0980 0.5490 0.8706);fill-opacity:1;"/>
<path d="M24.577 47.8501C22.037 47.8501 19.474 46.7501 17.163 44.6741C12.579 40.5631 9.25195 32.9261 9.25195 26.5161C9.25195 17.4981 16.127 10.1611 24.577 10.1611C33.02 10.1611 39.889 17.4981 39.889 26.5161C39.889 32.9261 36.562 40.5631 31.977 44.6741C29.667 46.7501 27.107 47.8501 24.577 47.8501ZM24.577 12.6611C17.505 12.6611 11.752 18.8771 11.752 26.5161C11.752 32.1861 14.796 39.1931 18.832 42.8141C20.679 44.4731 22.665 45.3491 24.577 45.3491C26.507 45.3491 28.436 44.4961 30.307 42.8141C34.345 39.1941 37.389 32.1861 37.389 26.5161C37.389 18.8771 31.642 12.6611 24.577 12.6611Z" fill="#198CDE" style="fill:#198CDE;fill:color(display-p3 0.0980 0.5490 0.8706);fill-opacity:1;"/>
<path fill-rule="evenodd" clip-rule="evenodd" d="M42.9588 59.9997H6.18178C5.99799 59.9996 5.81648 59.9591 5.65016 59.8808C5.48384 59.8026 5.33682 59.6887 5.21955 59.5472C5.10229 59.4057 5.01768 59.2401 4.97174 59.0621C4.9258 58.8842 4.91967 58.6983 4.95378 58.5177L6.08378 52.5477C7.16578 46.8327 12.1668 42.6047 17.9738 42.4937C18.6328 42.5287 19.2348 43.0297 19.2488 43.7187C19.2521 43.883 19.223 44.0464 19.1631 44.1994C19.1032 44.3525 19.0137 44.4922 18.8997 44.6106C18.7857 44.7291 18.6495 44.8239 18.4989 44.8896C18.3482 44.9553 18.1861 44.9907 18.0218 44.9937C13.3908 45.0817 9.40178 48.4537 8.53978 53.0127L7.68978 57.4997H41.4498L40.6008 53.0107C39.7378 48.4547 35.7498 45.0807 31.1188 44.9937C30.9544 44.9907 30.7923 44.9553 30.6417 44.8896C30.491 44.8239 30.3548 44.7291 30.2409 44.6106C30.1269 44.4922 30.0374 44.3525 29.9775 44.1994C29.9176 44.0464 29.8885 43.883 29.8918 43.7187C29.9058 43.0287 30.4798 42.4387 31.1658 42.4937C36.9738 42.6047 41.9748 46.8337 43.0568 52.5457L44.1868 58.5177C44.2215 58.6983 44.2157 58.8844 44.17 59.0626C44.1243 59.2408 44.0397 59.4066 43.9223 59.5483C43.805 59.6899 43.6577 59.8039 43.4911 59.8819C43.3245 59.9599 43.1427 60.0002 42.9588 59.9997ZM21.6308 41.0467H4.55078C3.86078 41.0467 3.30078 40.4877 3.30078 39.7967V36.4307C3.30078 36.0991 3.43248 35.7812 3.6669 35.5468C3.90132 35.3124 4.21926 35.1807 4.55078 35.1807C4.8823 35.1807 5.20024 35.3124 5.43466 35.5468C5.66909 35.7812 5.80078 36.0991 5.80078 36.4307V38.5467H21.6308C21.9623 38.5467 22.2802 38.6784 22.5147 38.9128C22.7491 39.1472 22.8808 39.4651 22.8808 39.7967C22.8808 40.1282 22.7491 40.4461 22.5147 40.6805C22.2802 40.915 21.9623 41.0467 21.6308 41.0467Z" fill="#198CDE" style="fill:#198CDE;fill:color(display-p3 0.0980 0.5490 0.8706);fill-opacity:1;"/>
</svg>
