<svg xmlns="http://www.w3.org/2000/svg" width="56" height="66" viewBox="0 0 56 66">
    <g fill="#20A052" fill-rule="nonzero">
        <path d="M13.1 63.525H5.845c-2.411 0-3.384-.991-3.384-3.425V12.9c0-2.434.973-3.425 3.384-3.425h1.46c.244 0 .488.158.732.475 0 .811.657 1.475 1.46 1.475h2.923V7H5.845C2.63 7 0 9.655 0 12.9v47.2C0 63.345 2.63 66 5.845 66H16c-.73-.369-2-1-2.9-2.475z"/>
        <path d="M24 63.533h-4.182c-2.4 0-3.363-.98-3.363-3.4V5.867c0-2.42.963-3.4 3.363-3.4h1.455c.242 0 .485.155.727.466 0 .807.655 1.467 1.455 1.467h13.09c.8 0 1.455-.66 1.455-1.467.242-.31.485-.466.727-.466h1.455c2.4 0 3.363.98 3.363 3.4V10H46V5.867C46 2.64 43.382 0 40.182 0H19.818C16.618 0 14 2.64 14 5.867v54.266C14 63.36 16.618 66 19.818 66h6.927C26 66 24 64 24 63.533z"/>
        <path d="M49.412 11.712H30.379c-3.22 0-5.856 2.636-5.856 5.857v42.457c0 3.221 2.635 5.856 5.856 5.856h19.033c3.22 0 5.856-2.635 5.856-5.856V17.57c0-3.221-2.635-5.857-5.856-5.857zm-13.909 3.66h8.785c.439 0 .732.293.732.733 0 .439-.293.732-.732.732h-8.785c-.439 0-.732-.293-.732-.732 0-.44.293-.732.732-.732zm4.392 49.046a2.937 2.937 0 0 1-2.928-2.928 2.937 2.937 0 0 1 2.928-2.928 2.937 2.937 0 0 1 2.929 2.928 2.937 2.937 0 0 1-2.929 2.928zm12.909-7.32H26.987V20.497h25.817v36.601z"/>
    </g>
</svg>
