<svg width="57" height="57" viewBox="0 0 57 57" fill="none" xmlns="http://www.w3.org/2000/svg">
<path d="M1.105 56.34C1.71527 56.34 2.21 55.8413 2.21 55.2262C2.21 54.611 1.71527 54.1123 1.105 54.1123C0.494725 54.1123 0 54.611 0 55.2262C0 55.8413 0.494725 56.34 1.105 56.34Z" fill="#198CDE" style="fill:#198CDE;fill:color(display-p3 0.0980 0.5490 0.8706);fill-opacity:1;"/>
<path d="M29.3188 28.0967C29.9274 28.0967 30.4208 27.5993 30.4208 26.9858C30.4208 26.3723 29.9274 25.875 29.3188 25.875C28.7102 25.875 28.2168 26.3723 28.2168 26.9858C28.2168 27.5993 28.7102 28.0967 29.3188 28.0967Z" fill="#198CDE" style="fill:#198CDE;fill:color(display-p3 0.0980 0.5490 0.8706);fill-opacity:1;"/>
<path d="M43.7545 12.8977C43.3198 12.4572 42.8027 12.1079 42.2332 11.8702C41.6636 11.6324 41.053 11.5109 40.4365 11.5127C39.82 11.5111 39.2093 11.6328 38.6398 11.8707C38.0703 12.1086 37.5532 12.458 37.1185 12.8987C36.2402 13.7865 35.747 14.9891 35.747 16.2429C35.747 17.4966 36.2402 18.6992 37.1185 19.587C37.5539 20.0264 38.0712 20.3749 38.6406 20.6122C39.21 20.8495 39.8203 20.9711 40.4365 20.97C41.0527 20.9711 41.663 20.8495 42.2324 20.6121C42.8018 20.3748 43.3191 20.0264 43.7545 19.587C44.6328 18.6992 45.126 17.4966 45.126 16.2429C45.126 14.9891 44.6328 13.7855 43.7545 12.8977ZM42.1945 18.0155C41.7277 18.4848 41.0953 18.7484 40.436 18.7484C39.7767 18.7484 39.1443 18.4848 38.6775 18.0155C38.2116 17.5449 37.9499 16.9072 37.9499 16.2424C37.9499 15.5775 38.2116 14.9398 38.6775 14.4692C38.908 14.2358 39.1822 14.0507 39.4841 13.9247C39.786 13.7988 40.1097 13.7344 40.4365 13.7354C41.1005 13.7354 41.7255 13.9965 42.1955 14.4692C43.1655 15.447 43.1645 17.0377 42.1945 18.0155ZM13.7695 45.3752C13.64 45.3101 13.499 45.2714 13.3546 45.2612C13.2102 45.2511 13.0652 45.2697 12.928 45.316C12.7907 45.3624 12.6639 45.4355 12.5547 45.5313C12.4455 45.627 12.356 45.7435 12.2915 45.8741L10.9785 48.5323C10.6956 49.1017 10.2705 49.5871 9.745 49.9406C9.21949 50.2941 8.61172 50.5035 7.98151 50.5483L6.45451 50.6542C6.3613 50.6611 6.26771 50.6475 6.18018 50.6145C6.09266 50.5814 6.01328 50.5296 5.94752 50.4627C5.88118 50.3965 5.82985 50.3167 5.79705 50.2286C5.76425 50.1406 5.75076 50.0464 5.75751 49.9526L5.86251 48.4134C5.90705 47.7781 6.11489 47.1655 6.46556 46.6358C6.81624 46.1061 7.29768 45.6776 7.86251 45.3923L10.4995 44.0688C10.6291 44.0038 10.7448 43.9137 10.8398 43.8036C10.9349 43.6936 11.0076 43.5657 11.0536 43.4274C11.0997 43.2891 11.1183 43.1429 11.1083 42.9973C11.0983 42.8518 11.06 42.7096 10.9955 42.5789C10.931 42.4483 10.8417 42.3317 10.7325 42.2359C10.6233 42.14 10.4965 42.0668 10.3592 42.0204C10.0821 41.9266 9.77928 41.9477 9.51751 42.0789L6.87952 43.4025C5.97074 43.8609 5.19608 44.55 4.63181 45.402C4.06755 46.2539 3.73314 47.2393 3.66152 48.2611L3.55952 49.8014C3.5314 50.212 3.59091 50.6238 3.73403 51.0093C3.87715 51.3947 4.10056 51.7447 4.3892 52.0358C4.67784 52.3268 5.02501 52.5521 5.40732 52.6965C5.78964 52.8409 6.19821 52.901 6.60552 52.8728L8.13351 52.768C9.14723 52.6959 10.1248 52.3589 10.97 51.7901C11.8152 51.2213 12.4988 50.4403 12.9535 49.5242L14.2665 46.866C14.331 46.7354 14.3694 46.5932 14.3794 46.4476C14.3894 46.302 14.3708 46.1559 14.3248 46.0175C14.2787 45.8792 14.2061 45.7513 14.1109 45.6413C14.0158 45.5312 13.9002 45.4411 13.7705 45.3762L13.7695 45.3752Z" fill="#198CDE" style="fill:#198CDE;fill:color(display-p3 0.0980 0.5490 0.8706);fill-opacity:1;"/>
<path d="M55.4589 0.739143C55.2028 0.485047 54.8964 0.288331 54.5597 0.16187C54.2229 0.0354103 53.8635 -0.0179428 53.5049 0.00530324L52.4779 0.0718327C47.9125 0.371449 43.4575 1.61726 39.3914 3.73138C35.3254 5.84549 31.7357 8.78245 28.8469 12.3586L26.4309 15.3565L20.1079 15.169H20.0759C17.6095 15.1618 15.1661 15.6478 12.8873 16.599C10.6084 17.5501 8.53939 18.9474 6.79992 20.7101L0.324916 27.239C0.174119 27.3909 0.0702819 27.5837 0.0259924 27.7939C-0.018297 28.0042 -0.00113691 28.2228 0.0753925 28.4234C0.151922 28.624 0.284534 28.7979 0.457153 28.9241C0.629772 29.0502 0.834986 29.1232 1.04792 29.1341L14.7559 29.8437L14.1969 30.5373C13.9159 30.887 13.8709 31.3739 14.0849 31.7691C14.2989 32.1672 14.5249 32.5594 14.7589 32.9444L11.5089 36.8354C11.2309 37.168 11.1709 37.6327 11.3549 38.0259C12.0649 39.5379 13.0079 40.8977 14.1569 42.065C15.3418 43.2671 16.726 44.2513 18.2469 44.9731C18.4346 45.0631 18.6438 45.0975 18.8502 45.0726C19.0565 45.0476 19.2516 44.9642 19.4129 44.832C20.1129 44.2584 20.9209 43.579 21.7009 42.9228C22.2579 42.4541 22.8269 41.9753 23.3599 41.5338C23.6769 41.7263 23.9989 41.9138 24.3249 42.0922C24.5131 42.1959 24.7272 42.2419 24.9409 42.2245C25.1546 42.2071 25.3587 42.1272 25.5279 41.9944L26.2789 41.4068L26.9869 55.2832C26.9982 55.4976 27.0708 55.7042 27.196 55.8779C27.3212 56.0516 27.4936 56.1851 27.6925 56.2621C27.8913 56.3392 28.108 56.3566 28.3164 56.3122C28.5248 56.2678 28.716 56.1635 28.8669 56.012L35.3429 49.484C37.0918 47.7309 38.4783 45.6455 39.4222 43.3486C40.3661 41.0516 40.8487 38.5888 40.8419 36.1025V30.0141L43.3959 28.0162C47.1765 25.0621 50.2777 21.3178 52.4862 17.0407C54.6947 12.7636 55.9583 8.05518 56.1899 3.23904L56.2159 2.69773C56.2336 2.33603 56.1755 1.97463 56.0452 1.63713C55.9149 1.29964 55.7145 0.993646 55.4589 0.739143ZM3.63692 27.0425L8.35992 22.2826C9.89302 20.7287 11.7163 19.4964 13.7244 18.6568C15.7326 17.8172 17.8859 17.3868 20.0599 17.3906L24.6809 17.5267L16.4779 27.7077L3.63692 27.0425ZM20.2889 41.2162C19.7129 41.7001 19.1229 42.196 18.5759 42.6507C17.525 42.0787 16.5634 41.3538 15.7219 40.4995C14.9119 39.676 14.2209 38.7375 13.6649 37.7043L16.0449 34.8556C16.7649 35.8294 17.5519 36.7507 18.4029 37.6146L18.4049 37.6166L18.4069 37.6186C19.3499 38.5762 20.3649 39.4532 21.4419 40.2485C21.0619 40.5661 20.6719 40.8937 20.2889 41.2162ZM38.6369 36.1025C38.6429 38.2968 38.217 40.4704 37.384 42.4976C36.551 44.5248 35.3273 46.3653 33.7839 47.9125L29.0609 52.6734L28.4019 39.7455L38.6369 31.7398V36.1025ZM53.9879 3.13017C53.7719 7.62629 52.5925 12.0219 50.5309 16.0149C48.4693 20.0078 45.5743 23.5034 42.0449 26.2612L24.7549 39.7859C23.3229 38.9412 21.9844 37.945 20.7619 36.8142L26.5919 30.9374C26.7872 30.7266 26.8936 30.4476 26.8886 30.1592C26.8836 29.8708 26.7677 29.5957 26.5652 29.3919C26.3628 29.1881 26.0897 29.0715 25.8036 29.0669C25.5175 29.0622 25.2408 29.1698 25.0319 29.3669L19.2079 35.2367C18.1365 34.0426 17.1896 32.7408 16.3819 31.3517L30.5579 13.7587C33.2547 10.4203 36.6057 7.67852 40.4014 5.7049C44.1971 3.73127 48.356 2.56822 52.6179 2.28847L53.6449 2.22295C53.6939 2.21944 53.743 2.22648 53.7891 2.2436C53.8352 2.26071 53.8771 2.28751 53.9121 2.32222C53.9471 2.35693 53.9743 2.39874 53.9921 2.44489C54.0098 2.49103 54.0176 2.54046 54.0149 2.58987L53.9879 3.13017Z" fill="#198CDE" style="fill:#198CDE;fill:color(display-p3 0.0980 0.5490 0.8706);fill-opacity:1;"/>
</svg>
