<svg xmlns="http://www.w3.org/2000/svg" width="57" height="56" viewBox="0 0 57 56">
    <g fill="#20A052" fill-rule="nonzero">
        <circle cx="1.105" cy="54.841" r="1.105"/>
        <circle cx="29.318" cy="26.826" r="1.102"/>
        <path d="M43.755 12.85a4.661 4.661 0 0 0-3.318-1.374 4.662 4.662 0 0 0-3.318 1.375 4.698 4.698 0 0 0 0 6.635 4.677 4.677 0 0 0 3.318 1.372 4.678 4.678 0 0 0 3.318-1.372 4.698 4.698 0 0 0 0-6.635zm-1.56 5.077a2.49 2.49 0 0 1-3.517 0 2.49 2.49 0 0 1 0-3.518 2.471 2.471 0 0 1 1.759-.728c.664 0 1.289.259 1.759.728.97.97.97 2.548 0 3.518zM13.77 45.069a1.102 1.102 0 0 0-1.478.495l-1.313 2.637a3.638 3.638 0 0 1-2.997 2l-1.527.105a.647.647 0 0 1-.507-.19.646.646 0 0 1-.19-.506l.105-1.527a3.639 3.639 0 0 1 2-2.997l2.637-1.313a1.102 1.102 0 1 0-.982-1.974L6.88 43.112a5.851 5.851 0 0 0-3.218 4.82L3.56 49.46a2.857 2.857 0 0 0 3.046 3.047l1.528-.104a5.85 5.85 0 0 0 4.82-3.218l1.313-2.637a1.102 1.102 0 0 0-.496-1.478z"/>
        <path d="M55.459.788A2.552 2.552 0 0 0 53.505.06l-1.027.066a33.261 33.261 0 0 0-23.631 12.189l-2.416 2.974-6.323-.186h-.032A18.65 18.65 0 0 0 6.8 20.6L.325 27.077a1.102 1.102 0 0 0 .723 1.88l13.708.704-.559.688c-.281.347-.326.83-.112 1.222.214.395.44.784.674 1.166l-3.25 3.86c-.278.33-.338.791-.154 1.181.71 1.5 1.653 2.849 2.802 4.007a14.433 14.433 0 0 0 4.09 2.885 1.1 1.1 0 0 0 1.166-.14c.7-.569 1.508-1.243 2.288-1.894.557-.465 1.126-.94 1.659-1.378.317.191.639.377.965.554a1.1 1.1 0 0 0 1.203-.097l.751-.583.708 13.766a1.103 1.103 0 0 0 1.88.723l6.476-6.476a18.65 18.65 0 0 0 5.499-13.275V29.83l2.554-1.982A33.13 33.13 0 0 0 56.19 3.268l.026-.537A2.554 2.554 0 0 0 55.46.788zM3.637 26.882L8.36 22.16a16.461 16.461 0 0 1 11.7-4.853l4.621.135-8.203 10.1-12.841-.66zm16.652 14.061c-.576.48-1.166.972-1.713 1.423a12.171 12.171 0 0 1-2.854-2.134c-.81-.817-1.501-1.748-2.057-2.773l2.38-2.826c.72.966 1.507 1.88 2.358 2.737l.002.002.002.002c.943.95 1.958 1.82 3.035 2.609-.38.315-.77.64-1.153.96zm18.348-5.073a16.46 16.46 0 0 1-4.853 11.716l-4.723 4.723-.659-12.825 10.235-7.942v4.328zM53.988 3.16a30.927 30.927 0 0 1-11.943 22.947l-17.29 13.417a23.343 23.343 0 0 1-3.993-2.948l5.83-5.83a1.103 1.103 0 0 0-1.56-1.558l-5.824 5.823a23.34 23.34 0 0 1-2.826-3.854l14.176-17.453a31.05 31.05 0 0 1 22.06-11.379l1.027-.065a.346.346 0 0 1 .37.364l-.027.536z"/>
    </g>
</svg>
