<svg width="211" height="171" viewBox="0 0 211 171" fill="none" xmlns="http://www.w3.org/2000/svg">
<path d="M66.1817 171C145.596 171 189.033 105.206 189.033 48.1488C189.033 46.2801 189.033 44.4197 188.907 42.5678C197.357 36.4556 204.651 28.8876 210.448 20.2182C202.568 23.7116 194.209 26.0016 185.649 27.0114C194.663 21.616 201.409 13.1287 204.631 3.12979C196.156 8.15957 186.883 11.704 177.214 13.6101C170.704 6.68791 162.094 2.10421 152.717 0.568322C143.339 -0.967571 133.717 0.629967 125.339 5.11373C116.961 9.59748 110.294 16.7175 106.37 25.3719C102.447 34.0264 101.485 43.7328 103.633 52.9891C86.4669 52.128 69.6737 47.6668 54.3434 39.8951C39.0131 32.1234 25.4884 21.2148 14.6472 7.87749C9.1258 17.3827 7.43471 28.6349 9.91824 39.3432C12.4018 50.0514 18.8732 59.4106 28.0148 65.515C21.1433 65.3137 14.4214 63.4599 8.41792 60.1107V60.6579C8.42065 70.6265 11.8715 80.2874 18.1851 88.0018C24.4987 95.7162 33.2864 101.009 43.0577 102.983C36.7011 104.717 30.0316 104.97 23.5618 103.724C26.3219 112.303 31.6937 119.804 38.9262 125.18C46.1587 130.556 54.8903 133.538 63.9004 133.709C54.9483 140.745 44.6967 145.948 33.732 149.019C22.7673 152.09 11.3047 152.968 0 151.605C19.7456 164.276 42.7203 170.997 66.1817 170.966" fill="#ABBCCC" style="fill:#ABBCCC;fill:color(display-p3 0.6706 0.7373 0.8000);fill-opacity:1;"/>
</svg>
