<svg width="172" height="172" viewBox="0 0 172 172" fill="none" xmlns="http://www.w3.org/2000/svg">
<path d="M20.4724 135.147C10.1881 121.457 4.09385 104.44 4.09385 85.9995C4.09385 40.7647 40.7639 4.09473 85.9986 4.09473C131.233 4.09473 167.903 40.7647 167.903 85.9995C167.903 131.234 131.233 167.904 85.9986 167.904C67.558 167.904 50.5407 161.81 36.8509 151.526L4.09375 167.904L20.4724 135.147Z" fill="white" style="fill:white;fill-opacity:1;"/>
<path d="M20.4724 135.147L24.0501 136.936L25.1566 134.723L23.6704 132.745L20.4724 135.147ZM36.8509 151.526L39.2535 148.328L37.2752 146.841L35.0621 147.948L36.8509 151.526ZM4.09375 167.904L0.516041 166.115C-0.253936 167.655 0.047882 169.515 1.26532 170.733C2.48276 171.95 4.34265 172.252 5.8826 171.482L4.09375 167.904ZM53.2366 53.2377L50.8366 50.0377C49.8294 50.7931 49.2366 51.9786 49.2366 53.2377H53.2366ZM118.76 118.761V122.761C119.94 122.761 121.06 122.241 121.82 121.338L118.76 118.761ZM58.3266 49.4202L55.9266 46.2202L55.9266 46.2202L58.3266 49.4202ZM71.3681 54.9566L67.399 55.4528L67.399 55.4528L71.3681 54.9566ZM73.2159 69.739L77.1851 69.2428L77.1851 69.2428L73.2159 69.739ZM70.8802 76.5464L68.0518 73.718L68.0518 73.718L70.8802 76.5464ZM122.391 114.45L119.332 111.873L119.332 111.873L122.391 114.45ZM117.312 101.07L117.891 97.112L117.891 97.112L117.312 101.07ZM102.354 98.8808L102.933 94.923L102.354 98.8808ZM95.3761 101.193L98.2045 104.022L98.2045 104.022L95.3761 101.193ZM0.09385 85.9995C0.09385 105.336 6.48743 123.191 17.2743 137.55L23.6704 132.745C13.8887 119.724 8.09385 103.544 8.09385 85.9995H0.09385ZM85.9986 0.0947266C38.5547 0.0947266 0.09385 38.5556 0.09385 85.9995H8.09385C8.09385 42.9739 42.973 8.09473 85.9986 8.09473V0.0947266ZM171.903 85.9995C171.903 38.5556 133.443 0.0947266 85.9986 0.0947266V8.09473C129.024 8.09473 163.903 42.9739 163.903 85.9995H171.903ZM85.9986 171.904C133.443 171.904 171.903 133.443 171.903 85.9995H163.903C163.903 129.025 129.024 163.904 85.9986 163.904V171.904ZM34.4484 154.724C48.8071 165.511 66.662 171.904 85.9986 171.904V163.904C68.454 163.904 52.2743 158.109 39.2535 148.328L34.4484 154.724ZM5.8826 171.482L38.6398 155.103L35.0621 147.948L2.3049 164.327L5.8826 171.482ZM16.8946 133.358L0.516041 166.115L7.67146 169.693L24.0501 136.936L16.8946 133.358ZM49.2366 53.2377V61.4282H57.2366V53.2377H49.2366ZM110.57 122.761H118.76V114.761H110.57V122.761ZM49.2366 61.4282C49.2366 95.3016 76.6965 122.761 110.57 122.761V114.761C81.1148 114.761 57.2366 90.8833 57.2366 61.4282H49.2366ZM55.6366 56.4377L60.7266 52.6202L55.9266 46.2202L50.8366 50.0377L55.6366 56.4377ZM67.399 55.4528L69.2468 70.2351L77.1851 69.2428L75.3373 54.4605L67.399 55.4528ZM68.0518 73.718L58.5987 83.1712L64.2555 88.828L73.7087 79.3748L68.0518 73.718ZM69.2468 70.2351C69.4072 71.5183 68.9662 72.8036 68.0518 73.718L73.7087 79.3748C76.3687 76.7148 77.6517 72.9756 77.1851 69.2428L69.2468 70.2351ZM60.7266 52.6202C63.3007 50.6896 66.9999 52.2601 67.399 55.4528L75.3373 54.4605C74.1763 45.1727 63.4147 40.6041 55.9266 46.2202L60.7266 52.6202ZM121.82 121.338L125.451 117.026L119.332 111.873L115.701 116.185L121.82 121.338ZM117.891 97.112L102.933 94.923L101.774 102.839L116.733 105.028L117.891 97.112ZM92.5477 98.365L83.1701 107.743L88.8269 113.399L98.2045 104.022L92.5477 98.365ZM102.933 94.923C99.1217 94.3652 95.2712 95.6414 92.5477 98.365L98.2045 104.022C99.1407 103.086 100.464 102.647 101.774 102.839L102.933 94.923ZM125.451 117.026C131.604 109.719 127.344 98.4953 117.891 97.112L116.733 105.028C119.982 105.503 121.447 109.361 119.332 111.873L125.451 117.026Z" fill="#ABBCCC" style="fill:#ABBCCC;fill:color(display-p3 0.6706 0.7373 0.8000);fill-opacity:1;"/>
</svg>
