<svg width="172" height="172" viewBox="0 0 172 172" fill="none" xmlns="http://www.w3.org/2000/svg">
<path d="M20.4724 135.147C10.1881 121.457 4.09385 104.44 4.09385 85.9995C4.09385 40.7647 40.7639 4.09473 85.9986 4.09473C131.233 4.09473 167.903 40.7647 167.903 85.9995C167.903 131.234 131.233 167.904 85.9986 167.904C67.558 167.904 50.5407 161.81 36.8509 151.526L4.09375 167.904L20.4724 135.147Z" fill="#ABBCCC" style="fill:#ABBCCC;fill:color(display-p3 0.6706 0.7373 0.8000);fill-opacity:1;"/>
<path d="M20.4724 135.147L23.6028 136.712L24.5711 134.776L23.2707 133.045L20.4724 135.147ZM36.8509 151.526L38.9532 148.727L37.2222 147.427L35.2857 148.395L36.8509 151.526ZM4.09375 167.904L0.963255 166.339C0.289525 167.686 0.553615 169.314 1.61888 170.379C2.68414 171.444 4.31154 171.709 5.659 171.035L4.09375 167.904ZM53.2366 53.2377L51.1366 50.4377C50.2553 51.0987 49.7366 52.136 49.7366 53.2377H53.2366ZM118.76 118.761V122.261C119.793 122.261 120.773 121.806 121.438 121.016L118.76 118.761ZM58.3266 49.4202L56.2266 46.6202L56.2266 46.6202L58.3266 49.4202ZM71.3681 54.9566L67.8952 55.3908L67.8952 55.3908L71.3681 54.9566ZM73.2159 69.739L76.6889 69.3048L76.6889 69.3048L73.2159 69.739ZM70.8802 76.5464L68.4054 74.0715L68.4054 74.0715L70.8802 76.5464ZM122.391 114.45L119.714 112.195L119.714 112.195L122.391 114.45ZM117.312 101.07L117.819 97.6068L117.819 97.6068L117.312 101.07ZM102.354 98.8808L102.86 95.4177L102.354 98.8808ZM95.3761 101.193L97.851 103.668L97.851 103.668L95.3761 101.193ZM0.59385 85.9995C0.59385 105.224 6.95001 122.974 17.674 137.249L23.2707 133.045C13.4261 119.94 7.59385 103.656 7.59385 85.9995H0.59385ZM85.9986 0.594727C38.8309 0.594727 0.59385 38.8317 0.59385 85.9995H7.59385C7.59385 42.6977 42.6969 7.59473 85.9986 7.59473V0.594727ZM171.403 85.9995C171.403 38.8317 133.166 0.594727 85.9986 0.594727V7.59473C129.3 7.59473 164.403 42.6977 164.403 85.9995H171.403ZM85.9986 171.404C133.166 171.404 171.403 133.167 171.403 85.9995H164.403C164.403 129.301 129.3 164.404 85.9986 164.404V171.404ZM34.7487 154.324C49.0238 165.048 66.774 171.404 85.9986 171.404V164.404C68.342 164.404 52.0576 158.572 38.9532 148.727L34.7487 154.324ZM5.659 171.035L38.4162 154.656L35.2857 148.395L2.5285 164.774L5.659 171.035ZM17.3419 133.582L0.963255 166.339L7.22425 169.47L23.6028 136.712L17.3419 133.582ZM49.7366 53.2377V61.4282H56.7366V53.2377H49.7366ZM110.57 122.261H118.76V115.261H110.57V122.261ZM49.7366 61.4282C49.7366 95.0255 76.9726 122.261 110.57 122.261V115.261C80.8386 115.261 56.7366 91.1595 56.7366 61.4282H49.7366ZM55.3366 56.0377L60.4266 52.2202L56.2266 46.6202L51.1366 50.4377L55.3366 56.0377ZM67.8952 55.3908L69.743 70.1731L76.6889 69.3048L74.8411 54.5225L67.8952 55.3908ZM68.4054 74.0715L58.9522 83.5247L63.902 88.4745L73.3551 79.0213L68.4054 74.0715ZM69.743 70.1731C69.9225 71.6093 69.4289 73.048 68.4054 74.0715L73.3551 79.0213C75.9061 76.4704 77.1364 72.8846 76.6889 69.3048L69.743 70.1731ZM60.4266 52.2202C63.3078 50.0593 67.4485 51.8171 67.8952 55.3908L74.8411 54.5225C73.7278 45.6156 63.4076 41.2344 56.2266 46.6202L60.4266 52.2202ZM121.438 121.016L125.068 116.704L119.714 112.195L116.083 116.507L121.438 121.016ZM117.819 97.6068L102.86 95.4177L101.847 102.344L116.805 104.533L117.819 97.6068ZM92.9012 98.7186L83.5236 108.096L88.4734 113.046L97.851 103.668L92.9012 98.7186ZM102.86 95.4177C99.2056 94.8829 95.5131 96.1067 92.9012 98.7186L97.851 103.668C98.8989 102.62 100.38 102.129 101.847 102.344L102.86 95.4177ZM125.068 116.704C130.969 109.697 126.884 98.9333 117.819 97.6068L116.805 104.533C120.442 105.065 122.082 109.384 119.714 112.195L125.068 116.704Z" fill="white" style="fill:white;fill-opacity:1;"/>
</svg>
